<?xml version="1.0" encoding="UTF-8" standalone="no"?>
<!DOCTYPE svg PUBLIC "-//W3C//DTD SVG 1.1//EN" "http://www.w3.org/Graphics/SVG/1.1/DTD/svg11.dtd">
<svg width="100%" height="100%" viewBox="0 0 89 89" version="1.1" xmlns="http://www.w3.org/2000/svg" xmlns:xlink="http://www.w3.org/1999/xlink" xml:space="preserve" xmlns:serif="http://www.serif.com/" style="fill-rule:evenodd;clip-rule:evenodd;stroke-linejoin:round;stroke-miterlimit:2;">
    <g transform="matrix(1.35824,0,0,1.35824,1.03624,1.03624)">
        <g>
            <path d="M2,61L62,61C63.103,61 64,60.103 64,59L64,5C64,3.897 63.103,3 62,3L2,3C0.897,3 0,3.897 0,5L0,59C0,60.103 0.897,61 2,61ZM62,17L62,37L42,37L42,17L62,17ZM42,59L42,39L62.001,39L62.001,59L42,59ZM62,5L62,15L9,15C8.447,15 8,15.448 8,16C8,16.552 8.447,17 9,17L40,17L40,59L2,59L2,17L4.557,17C5.11,17 5.557,16.552 5.557,16C5.557,15.448 5.11,15 4.557,15L2,15L2,5L62,5Z" style="fill:rgb(136,136,136);fill-rule:nonzero;"/>
            <path d="M7,13C8.654,13 10,11.654 10,10C10,8.346 8.654,7 7,7C5.346,7 4,8.346 4,10C4,11.654 5.346,13 7,13ZM7,9C7.552,9 8,9.449 8,10C8,10.551 7.552,11 7,11C6.448,11 6,10.551 6,10C6,9.449 6.448,9 7,9Z" style="fill:rgb(136,136,136);fill-rule:nonzero;"/>
            <path d="M15,13C16.654,13 18,11.654 18,10C18,8.346 16.654,7 15,7C13.346,7 12,8.346 12,10C12,11.654 13.346,13 15,13ZM15,9C15.552,9 16,9.449 16,10C16,10.551 15.552,11 15,11C14.448,11 14,10.551 14,10C14,9.449 14.448,9 15,9Z" style="fill:rgb(136,136,136);fill-rule:nonzero;"/>
            <path d="M23,13C24.654,13 26,11.654 26,10C26,8.346 24.654,7 23,7C21.346,7 20,8.346 20,10C20,11.654 21.346,13 23,13ZM23,9C23.552,9 24,9.449 24,10C24,10.551 23.552,11 23,11C22.448,11 22,10.551 22,10C22,9.449 22.448,9 23,9Z" style="fill:rgb(136,136,136);fill-rule:nonzero;"/>
            <path d="M6,23L6,32C4.897,32 4,32.897 4,34L4,55C4,56.103 4.897,57 6,57L36,57C37.103,57 38,56.103 38,55L38,47.062C38,46.51 37.553,46.062 37,46.062C36.447,46.062 36,46.51 36,47.062L36,55L6,55L6,34L13.279,34L13.823,35.632C14.095,36.45 14.858,37 15.72,37L35.999,37L35.999,43C35.999,43.552 36.446,44 36.999,44C37.552,44 37.999,43.552 37.999,43L37.999,37C37.999,35.897 37.102,35 35.999,35L35.999,27C35.999,26.735 35.894,26.48 35.706,26.293L30.706,21.293C30.518,21.105 30.265,21 29.999,21L8,21C6.897,21 6,21.897 6,23ZM15.721,35L15.177,33.368C14.905,32.55 14.142,32 13.28,32L8.001,32L8.001,23L29,23L29,27C29,27.552 29.447,28 30,28L34,28L34,35L15.721,35ZM31,24.414L32.586,26L31,26L31,24.414Z" style="fill:rgb(136,136,136);fill-rule:nonzero;"/>
            <path d="M15.291,52.706C15.479,52.894 15.734,53 16,53L26,53C26.551,53 26.998,52.555 27,52.004L27.004,51L33,51C33.553,51 34,50.552 34,50L34,47.25C34,45.812 33.055,44.604 31.759,44.176C31.914,43.814 32,43.417 32,43C32,41.346 30.654,40 29,40C27.346,40 26,41.346 26,43C26,43.415 26.085,43.81 26.238,44.17C25.587,44.385 25.028,44.803 24.63,45.354C24.528,45.308 24.42,45.277 24.313,45.239C24.746,44.6 25,43.829 25,43C25,40.794 23.206,39 21,39C18.794,39 17,40.794 17,43C17,43.832 17.256,44.605 17.693,45.245C17.588,45.282 17.482,45.316 17.381,45.362C16.983,44.805 16.421,44.385 15.763,44.169C15.916,43.81 16,43.415 16,43C16,41.346 14.654,40 13,40C11.346,40 10,41.346 10,43C10,43.418 10.087,43.815 10.241,44.176C8.944,44.603 8,45.812 8,47.25L8,50C8,50.552 8.447,51 9,51L15.004,51L15,51.996C15,52.262 15.104,52.517 15.291,52.706ZM17.004,51L17.008,50.007L17.008,49.993L17.012,49.013C17.012,47.903 17.915,47 19.026,47L23,47C24.109,47 25.013,47.903 25.013,49.009L25.004,51L17.004,51ZM32,49L27.011,49C27.008,48.096 26.694,47.271 26.185,46.6C26.404,46.237 26.804,46 27.249,46L30.749,46C31.438,46 31.999,46.561 31.999,47.25L31.999,49L32,49ZM29,42C29.552,42 30,42.449 30,43C30,43.551 29.552,44 29,44C28.448,44 28,43.551 28,43C28,42.449 28.448,42 29,42ZM21,41C22.103,41 23,41.897 23,43C23,44.103 22.103,45 21,45C19.897,45 19,44.103 19,43C19,41.897 19.897,41 21,41ZM13,42C13.552,42 14,42.449 14,43C14,43.551 13.552,44 13,44C12.448,44 12,43.551 12,43C12,42.449 12.448,42 13,42ZM10,47.25C10,46.561 10.561,46 11.25,46L14.75,46C15.206,46 15.609,46.246 15.824,46.619C15.323,47.286 15.016,48.105 15.014,49L10,49L10,47.25Z" style="fill:rgb(136,136,136);fill-rule:nonzero;"/>
            <path d="M52,43C48.691,43 46,45.691 46,49C46,52.309 48.691,55 52,55C55.309,55 58,52.309 58,49C58,45.691 55.309,43 52,43ZM55.858,48L53,48L53,45.142C54.399,45.506 55.494,46.601 55.858,48ZM52,53C49.794,53 48,51.206 48,49C48,47.142 49.279,45.589 51,45.142L51,49C51,49.552 51.447,50 52,50L55.858,50C55.411,51.72 53.859,53 52,53Z" style="fill:rgb(136,136,136);fill-rule:nonzero;"/>
            <path d="M47,33L49,33C49.366,33 49.705,32.894 50,32.722C50.295,32.894 50.634,33 51,33L53,33C53.366,33 53.705,32.894 54,32.722C54.295,32.894 54.634,33 55,33L57,33C58.103,33 59,32.103 59,31L59,29C59,27.897 58.103,27 57,27L55,27L55,26C55,24.897 54.103,24 53,24L51,24L51,23C51,21.897 50.103,21 49,21L47,21C45.897,21 45,21.897 45,23L45,31C45,32.103 45.897,33 47,33ZM57,29L57,31L55,31L55,29L57,29ZM53,26L53,31L51,31L51,26L53,26ZM47,23L49,23L49,31L47,31L47,23Z" style="fill:rgb(136,136,136);fill-rule:nonzero;"/>
        </g>
    </g>
</svg>
