<?xml version="1.0" encoding="UTF-8" standalone="no"?>
<!DOCTYPE svg PUBLIC "-//W3C//DTD SVG 1.1//EN" "http://www.w3.org/Graphics/SVG/1.1/DTD/svg11.dtd">
<svg width="100%" height="100%" viewBox="0 0 89 89" version="1.1" xmlns="http://www.w3.org/2000/svg" xmlns:xlink="http://www.w3.org/1999/xlink" xml:space="preserve" xmlns:serif="http://www.serif.com/" style="fill-rule:evenodd;clip-rule:evenodd;stroke-linecap:round;stroke-linejoin:round;stroke-miterlimit:1.5;">
    <g transform="matrix(1,0,0,1,-6,-958.362)">
        <g>
            <g transform="matrix(0.354258,0,0,0.354258,10.1807,961.388)">
                <path d="M20.32,40.18C15.523,40.18 5.629,40.168 0.535,40.18C0.219,40.207 0.098,40.114 0.078,40.254C0.078,41.766 0.078,76.754 0.09,77.774C0.129,77.911 1.23,77.774 3.019,77.821C8.183,77.794 15.738,77.856 20.343,77.802C20.277,77.962 20.429,47.126 20.332,40.197L20.324,40.197L20.32,40.18Z" style="fill:rgb(136,136,136);fill-rule:nonzero;"/>
                <path d="M77.617,78.887C77.914,78.625 78.312,77.93 78.621,77.856C79.594,77.817 80.394,77.836 82.098,77.836C87.508,77.825 95.297,77.836 99.805,77.825C100.203,76.996 99.793,41.528 99.926,40.481C94.379,40.344 84.149,40.481 78.77,40.441C78.129,40.395 78.344,40.672 77.563,39.82C77.051,39.215 76.164,38.391 75.727,37.816C75.707,37.777 75.727,37.762 75.762,37.762L99.778,37.762C100.028,37.723 99.872,37.594 99.926,37.074C99.618,32.985 101.161,27.602 97.606,24.515C97.122,23.984 96.317,23.773 96.297,23.004C96.286,21.965 96.297,18.941 96.286,18.039C96.286,17.527 96.223,17.621 95.774,17.605L82.993,17.605C82.805,17.605 82.723,17.687 82.684,17.91C82.583,19.105 82.684,20.387 82.657,21.816C82.622,22.605 82.778,22.89 82.321,22.937C81.466,22.949 77.794,22.937 76.93,22.937C76.505,22.918 76.567,22.769 76.384,22.121C76.067,20.851 75.384,18.14 75.02,16.703C74.778,15.652 74.481,14.597 74.239,13.511C74.036,12.336 73.536,10.906 72.243,10.597C65.966,10.363 56.856,10.586 50.657,10.511C44.907,10.593 42.716,10.355 38.063,10.558C35.735,10.922 35.93,13.398 35.352,15.261C34.797,17.476 34.25,19.906 33.653,22.355C33.543,22.808 33.512,22.949 33.368,22.976C32.559,23.004 24.102,22.976 21.54,22.984C21.102,22.972 20.864,23.05 20.79,22.797C21.012,18.8 17.079,19.047 14.27,19.105C12.672,19.14 11.079,19.058 9.547,19.125C8.063,19.191 6.887,20.379 6.876,21.918C6.938,22.672 6.364,23.07 5.676,23.117C-1.187,24.402 0.137,31.222 0.055,36.48C0.102,36.831 -0.081,37.679 0.239,37.593L34.169,37.593C34.243,37.73 33.614,38.195 33.446,38.382C32.806,38.929 32.22,39.847 31.509,40.078C29.31,40.3 25.802,40.105 23.177,40.171C22.645,46.878 23.196,75.316 23.009,77.671C23.009,77.71 23.009,77.734 23.028,77.753C23.337,77.894 24.028,77.726 24.552,77.788C26.571,77.796 28.474,77.749 30.415,77.777C31.528,77.933 32.13,79.316 32.911,80.058C33.876,81.16 33.403,80.679 32.884,80.781C27.673,80.792 1.931,80.769 0.196,80.788C0.075,80.992 0.27,81.538 0.356,81.828C2.098,87.14 7.536,86.093 12.044,86.16C17.079,86.097 31.997,86.222 39.083,86.14C41.087,85.855 42.727,87.167 44.563,87.738C50.091,89.781 56.083,90.031 61.786,88.675C64.251,88.163 66.45,86.995 68.79,86.226C73.232,86.124 76.989,86.16 82.212,86.152C84.857,86.191 88.193,86.117 91.302,86.163C93.861,86.304 96.783,86.128 98.501,83.921C99.208,83.085 99.7,82.058 99.892,81.019C99.904,80.871 99.88,80.804 99.81,80.789C98.161,80.769 77.427,80.761 76.017,80.749C75.997,80.535 77.111,79.496 77.536,78.968L77.611,78.882L77.617,78.887ZM93.211,20.778C93.203,21.243 93.231,22.458 93.203,22.883C92.57,22.966 91.078,22.883 90.094,22.919L86.043,22.919C85.832,22.899 85.785,22.985 85.785,22.782C85.797,22.27 85.766,21.196 85.793,20.739C85.813,20.676 86.027,20.727 86.422,20.712C88.223,20.723 91.617,20.712 93.203,20.751L93.203,20.77L93.211,20.778ZM85.492,30.063C86.715,28.551 88.969,29.208 90.629,29.059C91.633,28.997 92.762,28.966 93.563,29.68C95.047,30.821 94.938,33.399 93.258,34.309C91.949,35.016 90.199,34.606 88.777,34.727C85.938,35.145 83.73,32.716 85.422,30.153L85.488,30.067L85.492,30.063ZM19.887,22.919C18.512,23.079 16.93,22.919 15.25,22.981L10.391,22.981C9.758,22.981 8.426,23.067 7.95,22.934C7.79,22.86 7.739,22.571 7.821,22.442C8.063,22.395 10.27,22.434 12.477,22.415C15.157,22.415 16.551,22.415 17.598,22.403C18.18,22.395 19.231,22.368 19.664,22.438C19.852,22.493 19.914,22.673 19.899,22.864L19.899,22.919L19.887,22.919ZM85.141,53.622C88.516,54.477 90.501,58.622 88.887,61.801C88.11,63.387 86.598,64.704 84.852,65.032C84.157,65.188 84.176,64.997 84.297,64.196C84.473,63.481 84.215,62.696 84.903,62.395C86.426,61.837 87.305,59.864 86.825,58.395C86.575,57.423 85.848,56.649 84.954,56.204C84.77,56.094 84.618,55.962 84.528,55.786C84.36,55.247 84.243,54.235 84.211,53.645C84.278,53.403 84.719,53.524 85.036,53.598L85.145,53.626L85.141,53.622ZM43.707,17.282C44.336,15.063 46.981,15.649 48.844,15.575C51.988,15.575 57.824,15.563 58.527,15.563L61.867,15.563C63,15.59 64.41,15.348 65.246,16.317C66.027,17.27 65.828,17.965 65.852,19.286L65.852,21.383C65.797,23.044 65.992,24.446 65.738,26.067C65.414,27.497 63.82,27.829 62.594,27.727C61.555,27.727 55.379,27.727 52.371,27.719L47.949,27.719C46,27.813 43.75,27.86 43.601,25.329C43.636,22.864 43.488,19.891 43.668,17.391L43.695,17.282L43.707,17.282ZM62.395,84.837C47.165,89.641 30.809,79.329 28.532,63.528C24.786,37.88 56.282,22.77 74.063,41.555C87.208,55.692 81.02,79.067 62.516,84.805L62.395,84.84L62.395,84.837Z" style="fill:rgb(136,136,136);fill-rule:nonzero;"/>
                <path d="M69.398,43.789C58.425,33.351 39.793,37.832 34.558,51.973C28.343,68.411 43.566,85.207 60.511,80.395C76.449,75.988 81.741,55.145 69.488,43.868L69.402,43.786L69.398,43.789ZM68.414,71.086C61.343,79.59 48.277,79.758 41.109,71.281C28.734,56.265 44.902,35.375 62.547,43.5C72.891,48.25 75.875,62.402 68.492,70.992L68.41,71.086L68.414,71.086Z" style="fill:rgb(136,136,136);fill-rule:nonzero;"/>
                <path d="M65.543,47.434C54.043,37.379 36.211,47.008 38.598,62.211C40.028,71.793 50.379,78.379 59.637,75.149C71.492,71.262 74.848,55.938 65.629,47.524L65.535,47.442L65.543,47.434ZM52.75,57.36C47.566,62.942 38.855,56.106 43.055,49.762C48.313,43.086 57.981,50.524 52.832,57.266L52.75,57.36Z" style="fill:rgb(136,136,136);fill-rule:nonzero;"/>
            </g>
            <g transform="matrix(0.366966,0,0,0.366966,54.4735,1006.4)">
                <path d="M96.105,46.305C96.05,43.586 96.14,38.786 96.105,35.875C96.472,31.746 94.011,27.574 90,26.316C87.222,25.414 84.195,25.934 81.324,25.82C78.492,25.801 69.094,25.879 63.429,25.84C62.069,25.805 61.308,25.898 60.866,25.766C59.757,23.355 57.792,21.293 55.276,20.223C55.042,20.09 54.655,19.961 54.499,19.84C54.304,19.707 54.472,19.617 54.651,19.391C56.491,17.234 65.842,6.297 67.061,4.864C67.257,4.641 67.39,4.75 67.8,4.715C70.866,4.789 71.167,0.211 68.026,-0.004C66.843,-0.097 65.671,0.875 65.577,2.067C65.495,2.676 65.804,3.223 65.323,3.727C62.479,7.012 56.722,13.7 54.612,16.118C53.823,16.962 53.026,18.048 52.155,18.809C51.659,19.184 50.796,19.051 50.038,19.044C49.534,19.032 49.015,19.118 48.511,19.098C48.097,19.087 47.768,18.852 47.425,18.477C46.749,17.719 46.456,17.36 45.831,16.657C42.296,12.559 38.874,8.704 35.093,4.341C34.585,3.853 34.378,3.235 34.448,2.548C34.487,1.771 34.155,0.962 33.511,0.493C30.925,-1.308 28.144,2.388 30.726,4.357C31.355,4.872 32.292,4.657 32.913,5.099C34.808,7.075 38.296,11.298 39.722,12.837C41.308,14.704 44.441,18.212 45.566,19.638C45.601,19.974 45.042,20.071 44.777,20.239C42.706,21.232 40.948,22.751 39.898,24.806C39.511,25.443 39.652,25.892 38.82,25.802C33.53,25.802 21.433,25.837 19.152,25.837C17.062,25.872 14.538,25.778 12.39,25.864C7.843,25.993 3.757,30.165 3.851,34.771C3.804,35.927 3.862,37.282 3.851,38.427C3.87,48.228 3.851,66.892 3.862,74.556L3.862,82.442C3.862,84.646 4.546,86.849 5.984,88.556C8.675,92.044 12.823,92.259 16.843,92.056C18.093,92.075 20.081,92.044 21.233,92.048C21.831,92.083 22.827,91.9 23.468,92.114C23.948,92.31 23.346,93.099 22.971,93.927C22.315,95.579 19.878,99.275 22.428,99.985C24.452,100.333 28.968,94.067 30.569,92.607C31.096,91.923 32.135,92.032 32.827,92.036C44.889,92.056 55.628,92.056 68.522,92.017C68.745,92.017 68.85,92.028 68.998,92.193C69.58,92.794 72.213,95.728 73.377,96.978C74.416,98.056 75.498,99.661 76.979,99.958C77.85,100.118 78.639,99.415 78.62,98.525C78.565,96.462 77.135,94.654 76.397,92.794C76.245,92.427 76.174,92.177 76.315,92.099C78.612,91.9 83.17,92.134 85.909,92.052C92.143,92.493 96.721,87.654 96.104,81.454C96.197,78.309 96.049,73.79 96.104,69.638C96.018,67.736 96.158,52.568 96.104,46.333L96.105,46.305ZM73.433,80.078C72.234,85.797 65.874,85.312 61.343,85.258C56.589,85.219 53.945,85.293 49.101,85.258C41.16,85.219 20.109,85.297 16.492,85.176C13.773,84.883 11.379,82.66 10.894,79.941C10.594,77.953 10.793,75.637 10.719,73.668C10.801,69.805 10.617,51.027 10.683,43.844C10.629,40.617 10.269,36.754 13.269,34.633C15.511,32.731 18.633,33.215 21.328,33.168C31.859,33.16 60.543,33.18 66.555,33.149C69.406,33.028 72.278,34.77 73.184,37.559C73.653,38.93 73.453,40.512 73.492,41.922C73.504,44.024 73.481,47.617 73.492,49.442C73.434,51.543 73.613,72.981 73.438,79.962L73.418,80.075L73.433,80.078ZM85.804,56.293C83.199,59.715 77.792,56.395 79.867,52.516C82.406,48.465 88.335,52.094 85.87,56.199L85.812,56.293L85.804,56.293ZM85.605,46.465C82.136,50.094 76.894,44.645 80.866,41.418C84.179,39.027 88.202,43.113 85.679,46.379L85.605,46.465Z" style="fill:rgb(136,136,136);fill-rule:nonzero;"/>
                <path d="M71.621,71.555C71.566,65.063 71.656,52.403 71.621,43.782C71.5,41.243 72.269,37.837 69.848,36.063C67.766,34.415 64.387,35.192 61.996,35.02C56.941,35.048 52.656,35.001 47.844,35.02C41.399,35.02 32.34,35.028 29.535,35.02L17.605,35.02C14.058,35.133 12.191,37.93 12.597,41.352C12.597,52.653 12.625,65.805 12.597,75.426C12.57,77.856 12.203,80.848 14.503,82.434C15.941,83.614 17.882,83.465 19.617,83.446C20.593,83.454 22.195,83.446 23.058,83.446C24.73,83.426 32.257,83.457 36.492,83.446C40.703,83.457 53.207,83.434 59.937,83.446C63.793,83.176 69.429,84.719 71.378,80.321C71.765,79.122 71.601,77.735 71.624,76.512C71.652,75.387 71.605,72.571 71.624,71.59L71.624,71.551L71.621,71.555ZM68.914,77.801C68.285,81.02 64.348,80.735 61.832,80.664C60.426,80.672 58.07,80.664 56.844,80.664C55.004,80.645 41.426,80.664 36.059,80.637C33.133,80.649 27.981,80.645 24.524,80.657C23.832,80.684 22.496,80.645 21.551,80.664C19.61,80.664 17.199,81.02 16.02,79.09C15.215,77.907 15.446,76.367 15.418,75.039L15.418,70.227C15.473,64.204 15.383,52.614 15.418,44.747C15.539,42.805 14.938,40.618 16.317,38.997C17.61,37.61 18.949,37.692 20.821,37.712L26.766,37.712C34.27,37.759 53.719,37.673 63.606,37.723C65.239,37.618 67.641,37.759 68.528,39.591C69.008,40.427 68.961,41.532 68.969,42.36C68.977,43.216 68.969,44.216 68.977,45.098C69.004,47.923 68.969,54.524 68.985,55.895C68.911,64.243 69.114,70.957 68.93,77.653L68.911,77.775L68.914,77.801Z" style="fill:rgb(136,136,136);fill-rule:nonzero;"/>
            </g>
            <g transform="matrix(0.339072,0,0,0.339072,55.5455,963.445)">
                <path d="M81.41,14.289C76.992,12.121 70.262,13.176 68.312,18.145C68.152,18.645 68.437,18.637 68.832,18.492C70.945,17.68 73.261,17.258 75.464,17.125C78.101,17.012 80.808,17.406 83.351,18.281C83.917,18.402 84.578,18.949 85.105,18.863C85.152,18.816 85.16,18.723 85.124,18.59C84.531,16.84 83.191,15.18 81.523,14.351L81.41,14.293L81.41,14.289Z" style="fill:rgb(136,136,136);fill-rule:nonzero;"/>
                <path d="M31.402,18.633C29.527,11.106 16.609,11.5 14.746,18.879C14.758,19.047 14.914,19.047 15.168,18.938C20.164,16.43 26.258,16.77 31.363,18.664L31.402,18.629L31.402,18.633Z" style="fill:rgb(136,136,136);fill-rule:nonzero;"/>
                <path d="M38.012,30.496C38.84,35.48 39.614,35.594 44.504,35.433C47.442,35.406 52.832,35.406 55.121,35.414C59.067,35.414 61.125,36.066 61.695,31.258C62.055,29.195 62.488,27.074 62.902,25.039C63.969,21.324 61.688,21.629 58.859,21.703C56.25,21.73 52.082,21.695 50.285,21.703C46.789,21.703 42.91,21.691 40.356,21.695C38.293,21.648 36.133,21.469 36.688,24.164C37.066,26.012 37.637,28.687 37.996,30.437L38.008,30.504L38.012,30.496Z" style="fill:rgb(136,136,136);fill-rule:nonzero;"/>
                <path d="M97.371,47.105C96.609,44.191 95.644,39.82 94.781,36.816C94.535,35.082 94.633,33.32 94.055,31.585C90.453,18.894 76.121,14.862 65.328,21.523C64.847,21.762 64.609,22.156 64.667,22.684C64.746,23.336 64.632,24.066 64.5,24.664C64.058,26.852 63.492,29.66 63.019,31.965C62.273,37.223 59.457,37.145 54.953,37.027C51.898,37.027 47.199,37.016 43.629,37.02C40.179,37.328 37.543,36.301 36.941,32.59C36.359,29.887 35.765,27.117 35.199,24.356C34.84,23.387 35.527,22.133 34.457,21.574C22.508,14.051 6.437,20.527 5.23,35.14C5.241,37.035 4.616,38.836 4.136,40.64C3.761,42.355 3.14,44.703 2.777,46.461C0.761,56.75 -2.013,71.703 2.194,81.492C4.909,87.972 11.089,88.269 15.967,83.808C19.339,80.734 21.971,76.808 23.776,72.605C24.729,70.445 26.206,66.875 27.178,64.765C27.272,64.66 27.424,64.73 27.706,64.906C28.221,65.246 28.882,65.648 29.495,65.945C34.647,68.66 41.647,67.078 44.761,62.054C45.054,61.648 45.194,61.789 45.776,61.761C47.577,61.769 52.12,61.789 54.038,61.8C54.651,61.82 54.851,61.715 55.132,62.047C58.71,67.41 66.62,68.945 71.905,65.117C72.346,64.836 72.667,64.922 72.854,65.383C75.792,72.554 78.846,80.571 85.393,85.215C91.038,89.105 96.815,85.574 98.659,79.511C101.507,70.129 99.253,56.777 97.397,47.191L97.378,47.113L97.371,47.105ZM82.476,34.093C85.253,30.097 91.335,33.64 88.929,37.984C86.292,42.159 79.933,38.503 82.41,34.187L82.468,34.093L82.476,34.093ZM12.871,27.948C19.023,20.816 31.059,23.613 33.441,32.706C35.789,40.468 29.41,48.499 21.359,48.147C11.402,47.788 6.367,35.51 12.793,28.038L12.871,27.945L12.871,27.948ZM6.594,65.992C6.125,68.054 6.519,70.468 5.277,72.269C4.844,73.058 3.391,73.765 3.164,72.468C2.863,67.202 3.41,61.8 4.219,56.589C4.605,54.245 5.578,49.53 5.879,47.902C5.914,47.777 5.953,47.741 6.027,47.823C6.961,49.456 8.051,51.054 9.492,52.292C9.687,52.488 9.887,52.718 9.898,52.988C8.59,57.191 7.187,61.488 6.594,65.894L6.582,65.995L6.594,65.992ZM23.742,54.304C16.781,55.358 9.09,51.276 7.129,44.269C6.957,43.749 7.004,43.722 7.277,44.202C10.332,50.362 17.219,53.811 23.765,54.292L23.746,54.312L23.742,54.304ZM41.347,60.573C37.882,65.096 30.269,64.409 27.824,59.237C24.96,53.854 28.906,47.327 34.984,47.315C41.582,47.202 45.586,55.323 41.421,60.471L41.347,60.573ZM44.999,43.046C44.397,43.968 43.003,43.554 42.069,43.628C41.343,43.601 40.44,43.788 39.909,43.249C39.136,42.534 39.843,41.136 40.835,41.234C41.577,41.226 42.628,41.234 43.39,41.214C44.483,41.054 45.483,41.816 45.046,42.956L45.007,43.042L44.999,43.046ZM52.55,53.374C49.78,56.823 44.597,52.745 47.397,49.292C50.226,46.288 54.909,49.761 52.616,53.288L52.55,53.374ZM55.589,43.573C54.241,43.218 54.647,41.163 56.022,41.218C57.151,41.265 58.319,41.112 59.44,41.257C60.429,41.472 60.601,42.706 59.933,43.327C59.546,43.714 58.776,43.628 58.312,43.628C57.636,43.6 56.417,43.686 55.683,43.6L55.597,43.581L55.589,43.573ZM71.034,60.796C67.389,65.245 59.843,64.179 57.53,58.933C54.581,52.882 60.213,46.042 66.698,47.55C72.495,48.737 74.925,56.226 71.116,60.702L71.038,60.796L71.034,60.796ZM73.182,36.659C72.487,41.229 65.268,40.647 65.581,35.894C65.979,30.897 73.682,31.55 73.194,36.562L73.182,36.663L73.182,36.659ZM74.417,26.104C77.714,21.94 83.745,26.917 80.03,30.827C76.854,33.702 71.991,29.893 74.358,26.198L74.425,26.104L74.417,26.104ZM73.909,44.307C73.542,41.12 77.764,39.108 80.042,41.323C81.655,42.756 81.518,45.686 79.655,46.928C77.518,48.561 74.171,47.053 73.924,44.413L73.913,44.299L73.909,44.307ZM80.061,54.448C78.94,54.468 77.452,54.663 76.338,54.374C76.319,54.315 76.534,54.261 76.827,54.233C78.643,54.206 80.452,53.905 82.151,53.28C86.69,51.651 90.417,48.202 92.608,43.894C92.768,43.581 92.936,43.292 92.788,43.819C91.26,49.519 86.19,54.096 80.19,54.44L80.069,54.452L80.061,54.448ZM96.784,71.843C96.823,72.785 96.444,73.617 95.354,73.085C94.128,72.371 93.933,70.742 93.722,69.476C93.14,65.839 92.476,62.976 91.554,58.914C91.272,57.586 91.14,57.398 90.546,55.512C90.198,54.402 89.8,53.289 89.718,52.895C89.706,52.746 89.765,52.648 89.897,52.527C91.347,51.398 92.534,49.934 93.401,48.297C93.507,48.109 93.64,47.863 93.808,47.816C93.901,47.805 93.968,47.91 94.034,48.125C94.401,49.625 94.753,51.121 95.05,52.629C96.218,58.855 97.026,65.359 96.792,71.731L96.792,71.836L96.784,71.843Z" style="fill:rgb(136,136,136);fill-rule:nonzero;"/>
                <path d="M78.441,44.562C79.023,42.914 76.211,43.062 76.839,44.621C77.214,45.25 78.074,45.175 78.406,44.628L78.441,44.562Z" style="fill:rgb(136,136,136);fill-rule:nonzero;"/>
                <path d="M77.453,29.027C78.582,29.027 78.68,27.406 77.508,27.351C76.461,27.304 76.34,28.859 77.383,29.019L77.457,29.019L77.453,29.027Z" style="fill:rgb(136,136,136);fill-rule:nonzero;"/>
                <path d="M85.973,36.855C87.282,36.769 86.86,34.886 85.641,35.253C84.899,35.64 85.075,36.808 85.903,36.855L85.973,36.855Z" style="fill:rgb(136,136,136);fill-rule:nonzero;"/>
                <path d="M69.48,35.34C68.324,35.16 68.019,36.742 69.195,36.969C70.269,37.102 70.589,35.653 69.55,35.36L69.484,35.348L69.48,35.34Z" style="fill:rgb(136,136,136);fill-rule:nonzero;"/>
                <path d="M67.297,51.793C61.926,48.656 57.555,56.445 63.086,59.371C67.883,61.481 71.715,54.914 67.395,51.852L67.301,51.785L67.297,51.793Z" style="fill:rgb(136,136,136);fill-rule:nonzero;"/>
                <path d="M37.645,51.996C32.555,48.555 27.61,55.984 32.895,59.289C37.504,61.738 41.825,55.414 37.731,52.07L37.637,51.996L37.645,51.996Z" style="fill:rgb(136,136,136);fill-rule:nonzero;"/>
                <path d="M22.973,35.875C23.512,36.563 24.489,37.43 25.11,38.117C25.598,38.559 25.645,38.813 25.985,38.844C27.661,38.816 30.317,38.992 30.055,36.57C29.989,35.629 30.254,34.59 29.735,33.746C28.926,32.625 27.293,32.926 26.09,32.793C25.715,32.781 25.649,33.102 25.309,33.379C24.543,34.207 23.602,34.988 22.993,35.828L22.973,35.875Z" style="fill:rgb(136,136,136);fill-rule:nonzero;"/>
                <path d="M13.699,37.504C14.008,38.981 15.93,38.746 17.101,38.859C17.32,38.879 17.593,38.926 17.797,38.859C18.769,38.152 19.617,37.098 20.519,36.285C20.621,36.16 20.804,35.945 20.726,35.797C20.281,35.11 19.34,34.203 18.711,33.563C18.289,33.207 18.07,32.75 17.512,32.754C13.347,32.707 13.488,33.762 13.683,37.406L13.703,37.508L13.699,37.504Z" style="fill:rgb(136,136,136);fill-rule:nonzero;"/>
                <path d="M21.891,34.785C22.457,34.551 22.703,34.164 23.227,33.656C23.774,33.082 24.668,32.176 24.86,31.949C25.02,30.969 24.727,29.902 24.594,28.914C24.473,28.215 23.926,27.66 23.207,27.605C18.828,27.332 19.129,27.738 18.864,31.828C19.125,32.336 19.91,32.922 20.285,33.375C20.778,33.836 21.239,34.441 21.813,34.777L21.899,34.777L21.891,34.785Z" style="fill:rgb(136,136,136);fill-rule:nonzero;"/>
                <path d="M24.641,39.418C24.067,38.844 23.246,38.004 22.692,37.449C21.739,36.195 21.145,37.504 20.336,38.176C19.856,38.734 19.203,39.129 18.903,39.789C18.778,40.703 19.004,41.629 19.063,42.551C19.203,44.141 20.817,44.172 22.071,44.086C24.278,44.258 24.754,43.359 24.832,41.285C24.844,40.703 25.145,39.93 24.692,39.477L24.633,39.418L24.641,39.418Z" style="fill:rgb(136,136,136);fill-rule:nonzero;"/>
            </g>
            <g transform="matrix(0.390884,0,0,0.390884,8.6388,1005.04)">
                <path d="M0.355,39.473C1.258,42.477 2.719,46.707 3.84,50.434C4.102,51.293 4.355,51.903 4.449,52.723C4.57,54.746 4.137,56.266 6.125,57.45C6.32,57.59 6.293,57.665 6.293,57.852L6.293,59C6.379,69.148 6.246,80.777 6.285,87.879C6.211,90.45 5.918,93.633 8.43,95.169C9.899,96.188 11.82,95.93 13.516,95.962C15.039,95.962 17.066,95.973 18.461,95.969C32.785,96.028 81.906,95.915 88.496,95.969C89.793,95.934 91.285,96.004 92.59,95.962C95.219,96.036 97.617,93.7 97.465,91.047C97.476,89.258 97.43,52.844 97.484,50.606C97.512,50.524 98.144,50.493 98.379,50.411C99.387,50.216 100.055,49.231 100.015,48.22C99.941,45.462 99.801,42.899 99.707,40.169C99.707,38.642 99.601,37.833 98.558,36.911C97.629,36.157 96.277,36.384 95.121,36.497C93.738,36.63 92.336,36.743 90.422,36.919C87.512,37.173 78.438,38.032 73.02,38.54C61.438,39.634 38.2,41.665 24.407,43.126C24.348,43.126 24.313,43.126 24.313,43.118C25.126,42.704 26.309,42.372 27.223,42.028C47.551,34.837 65.328,28.208 86.715,20.305C88.125,19.786 90.02,19.098 91.489,18.551C94.594,17.516 94.184,15.348 93.051,12.696C92.496,11.079 91.711,8.938 91.196,7.383C90.801,6.243 90.442,4.559 89.075,4.145C87.746,3.712 86.289,4.633 85.016,5.028C83.18,5.715 81.739,6.208 79.969,6.883C70.77,10.321 65.024,12.446 57.321,15.247C41.626,20.954 23.094,27.685 11.633,31.802C9.832,32.454 6.371,33.673 4.938,34.192C2.266,35.173 -1.031,35.54 0.34,39.38L0.375,39.481L0.355,39.473ZM12.73,50.473C10.883,52.957 7.062,50.438 8.625,47.762C10.453,44.836 14.586,47.5 12.785,50.391L12.73,50.473ZM86.957,87.035C75.844,87.414 29.445,87.008 16.348,87.129C16.321,87.129 16.302,87.121 16.294,87.074C16.266,87 16.266,86.68 16.266,86.238C16.266,85.851 16.266,85.484 16.302,85.351C16.321,85.305 16.337,85.238 16.395,85.23C17.997,85.183 29.118,85.223 33.036,85.191C36.294,85.183 38.876,85.18 39.419,85.18C39.568,85.18 39.568,85.152 39.568,85.027C39.509,83.484 39.693,69.105 39.486,66.668C33.931,66.52 17.615,66.922 16.295,66.5C16.275,66.168 16.154,64.953 16.42,64.684C17.24,64.582 19.63,64.684 22.576,64.645C32.728,64.633 69.713,64.625 85.814,64.625C86.443,64.645 86.802,64.578 86.927,64.66C86.966,64.906 86.962,65.262 86.962,65.555C86.962,65.914 86.962,66.262 86.943,66.422C86.923,66.574 86.884,66.602 86.81,66.61L85.982,66.61C81.704,66.75 64.439,66.422 64.154,66.824C64.181,70.668 64.142,82.719 64.173,85.109C64.173,85.145 64.185,85.164 64.212,85.168C64.486,85.195 64.705,85.168 65.142,85.18C69.068,85.188 81.251,85.188 86.876,85.215C86.95,85.25 86.958,85.281 86.978,85.395C87.017,85.668 86.997,86.582 86.97,86.977L86.958,87.031L86.957,87.035ZM87.676,39.351C89.493,39.058 93.098,38.859 94.551,38.691C94.684,38.679 94.93,38.644 95.004,38.738C95.153,38.839 94.93,39.246 94.649,39.574C94.223,40.113 93.399,41.167 92.887,41.824C92.188,42.718 89.348,46.363 88.133,47.925C87.665,48.499 86.844,49.656 86.411,50.074C85.895,50.48 84.887,50.359 84.219,50.46C83.336,50.527 80.375,50.769 79.024,50.867C78.817,50.867 78.598,50.933 78.582,50.792C79.297,49.98 85.418,41.789 87.594,39.362L87.661,39.343L87.676,39.351ZM79.7,39.999C79.868,39.999 80.266,39.953 80.032,40.179C78.129,42.695 72.45,50.187 71.465,51.488C71.098,51.855 70.129,51.676 69.696,51.742C68.086,51.801 65.825,51.922 64.27,51.984C64.071,51.984 63.911,51.984 63.903,51.918C64.075,51.625 65.411,49.914 66.914,47.914C68.922,45.266 70.672,42.949 72.317,40.785C72.383,40.699 72.43,40.683 72.532,40.664C73.332,40.59 78.653,40.07 79.629,39.996L79.696,39.996L79.7,39.999ZM52.259,48.335C53.313,47.015 54.829,45.089 55.657,44.05C56.079,43.55 56.673,42.714 57.091,42.288C57.403,42.027 57.684,42.007 58.192,41.956C60.196,41.788 62.298,41.601 64.302,41.429C65.544,41.281 65.345,41.515 64.688,42.316C61.731,46.148 59.696,48.792 56.985,52.269C56.899,52.37 56.86,52.41 56.739,52.437C56.212,52.492 52.239,52.777 50.259,52.929C49.532,52.956 49.282,53.07 48.95,52.976C48.649,52.675 49.657,51.687 49.833,51.421C50.567,50.499 51.641,49.117 52.231,48.382L52.266,48.343L52.259,48.335ZM42.236,43.41C43.81,43.242 48.572,42.828 49.533,42.734C49.986,42.648 49.888,42.949 49.665,43.288C47.931,45.66 43.759,51.386 42.122,53.589C41.97,53.703 41.876,53.656 41.615,53.695C39.618,53.855 36.4,54.214 34.392,54.343C34.232,54.332 34.197,54.257 34.271,54.148C34.919,53.289 40.478,45.691 42.216,43.421L42.236,43.421L42.236,43.41ZM27.326,44.988C29.47,44.695 31.779,44.542 33.947,44.292C34.716,44.14 34.615,44.492 34.248,45.035C32.751,47.144 28.826,52.96 27.466,54.913C27.427,54.952 27.38,54.972 27.306,54.988C25.13,55.23 21.892,55.609 19.697,55.824C19.498,55.824 19.415,55.785 19.501,55.644C20.04,54.89 23.259,50.429 25.337,47.546C26.384,46.191 26.751,45.378 27.267,45.015L27.326,44.995L27.326,44.988ZM75.123,20.941C76.677,17.628 78.119,14.499 80.15,10.121C80.337,9.734 80.462,9.398 80.65,9.078C81.212,8.445 81.646,8.55 82.732,8.109C84.509,7.507 86.283,6.835 88.173,6.148C88.927,5.906 88.033,7.335 87.958,7.605C86.455,10.871 84.439,15.101 82.357,19.543C82.255,19.738 82.263,19.809 82.122,19.891C81.701,20.063 75.841,22.18 74.685,22.609C74.056,22.852 75.064,21.149 75.087,21.035L75.126,20.953L75.123,20.941ZM65.849,14.413C67.63,13.761 72.74,11.749 73.666,11.515C73.884,11.64 72.853,13.476 72.646,14.019C71.978,15.429 68.974,21.949 67.713,24.621C67.353,25.488 66.252,25.617 65.463,25.957C64.642,26.23 61.017,27.625 59.568,28.074C59.486,28.082 59.466,28.054 59.474,28C59.642,27.558 64.541,17.117 65.83,14.43L65.849,14.418L65.849,14.413ZM51.115,19.851C52.756,19.23 57.893,17.347 58.564,17.113C58.893,17.058 58.537,17.62 58.256,18.335C57.076,20.839 53.568,28.487 52.576,30.612C52.416,30.772 52.283,30.753 51.963,30.886C49.994,31.554 46.697,32.909 44.787,33.448C44.986,32.995 47.846,26.847 49.627,22.987C50.435,21.272 50.916,20.136 51.096,19.862L51.115,19.851ZM30.228,37.628C31.799,34.268 33.713,30.112 35.717,25.78C35.849,25.335 36.826,25.018 37.299,24.85C39.107,24.19 41.283,23.401 43.127,22.733C43.767,22.491 43.986,22.424 43.955,22.561C43.916,22.741 43.588,23.381 43.154,24.35C41.994,26.881 38.861,33.69 38.201,35.123C38.099,35.33 38.041,35.526 37.881,35.764C37.646,36.236 36.611,36.479 36.193,36.623C34.509,37.209 31.908,38.131 30.084,38.772C29.451,38.986 30.131,37.897 30.197,37.697L30.236,37.615L30.228,37.628ZM15.998,41.128C17.428,38.272 19.174,34.538 21.057,30.769C21.666,30.437 25.83,29.081 27.928,28.304C29.475,27.695 29.084,28.038 28.522,29.265C27.26,31.894 25.299,35.988 24.682,37.281C24.166,38.355 23.561,39.671 23.026,40.777C22.678,41.472 22.311,41.523 21.323,41.87C19.908,42.277 18.432,43.191 16.885,42.613C16.198,42.386 15.451,42.011 15.963,41.21L16.002,41.124L15.998,41.128ZM14.026,33.229C14.1,33.249 14.1,33.331 13.998,33.515L13.592,34.362C12.733,36.14 11.135,39.522 11.029,39.683C10.889,39.702 10.803,39.597 10.561,39.511C8.397,38.542 6.061,37.507 4.311,36.772C5.139,36.319 12.193,33.89 13.998,33.229L14.026,33.229Z" style="fill:rgb(136,136,136);fill-rule:nonzero;"/>
                <path d="M41.582,66.688C41.457,70.919 41.535,84.04 41.555,85.161C45.707,85.227 56.469,85.161 58.438,85.181C59.406,85.161 61.508,85.216 62.102,85.153C62.336,84.946 62.113,83.583 62.188,81.602L62.188,66.77C62.188,66.638 62.141,66.665 61.988,66.657C55.246,66.684 46.379,66.61 41.601,66.677L41.574,66.677L41.582,66.688Z" style="fill:rgb(136,136,136);fill-rule:nonzero;"/>
            </g>
            <g transform="matrix(1,0,0,1.81172,45.0791,954.354)">
                <path d="M5.421,50.152L5.421,3.397" style="fill:none;stroke:rgb(136,136,136);stroke-width:1.37px;"/>
            </g>
            <g transform="matrix(2.30185,0,0,1,-3.30521,999.465)">
                <path d="M5.421,3.397L41.329,3.397" style="fill:none;stroke:rgb(136,136,136);stroke-width:1.13px;"/>
            </g>
        </g>
    </g>
</svg>
