<?xml version="1.0" encoding="UTF-8" standalone="no"?>
<!DOCTYPE svg PUBLIC "-//W3C//DTD SVG 1.1//EN" "http://www.w3.org/Graphics/SVG/1.1/DTD/svg11.dtd">
<svg width="100%" height="100%" viewBox="0 0 89 89" version="1.1" xmlns="http://www.w3.org/2000/svg" xmlns:xlink="http://www.w3.org/1999/xlink" xml:space="preserve" xmlns:serif="http://www.serif.com/" style="fill-rule:evenodd;clip-rule:evenodd;stroke-linejoin:round;stroke-miterlimit:2;">
    <g transform="matrix(2.15053,0,0,2.15053,-5.91762,-5.91708)">
        <g>
            <path d="M41.945,35.227L36.698,29.98L42.312,26.611C42.647,26.41 42.834,26.033 42.791,25.644C42.748,25.256 42.483,24.928 42.113,24.805L17.949,16.751C17.59,16.631 17.194,16.725 16.926,16.993C16.658,17.261 16.565,17.657 16.684,18.016L24.739,42.18C24.863,42.55 25.191,42.815 25.579,42.858C25.961,42.9 26.344,42.713 26.545,42.379L29.914,36.765L35.16,42.012C35.745,42.596 36.514,42.889 37.282,42.888C38.05,42.888 38.819,42.596 39.403,42.011L41.945,39.469C43.115,38.3 43.115,36.396 41.945,35.227ZM40.531,38.055L37.989,40.597C37.598,40.986 36.964,40.986 36.574,40.597L30.422,34.445C30.234,34.256 29.979,34.152 29.715,34.152C29.674,34.152 29.633,34.154 29.593,34.159C29.287,34.197 29.016,34.373 28.858,34.637L25.949,39.485L19.214,19.281L39.418,26.015L34.57,28.924C34.306,29.082 34.13,29.354 34.092,29.659C34.054,29.964 34.16,30.27 34.378,30.488L40.53,36.64C40.92,37.03 40.92,37.664 40.53,38.054L40.531,38.055Z" style="fill:rgb(136,136,136);fill-rule:nonzero;"/>
            <path d="M18.753,12.317C19.305,12.317 19.753,11.869 19.753,11.317L19.753,5C19.753,4.448 19.305,4 18.753,4C18.201,4 17.753,4.448 17.753,5L17.753,11.317C17.753,11.869 18.201,12.317 18.753,12.317Z" style="fill:rgb(136,136,136);fill-rule:nonzero;"/>
            <path d="M9.782,8.302C9.391,7.911 8.759,7.911 8.368,8.302C7.977,8.693 7.977,9.325 8.368,9.716L12.835,14.183C13.03,14.378 13.286,14.476 13.542,14.476C13.798,14.476 14.054,14.378 14.249,14.183C14.64,13.792 14.64,13.16 14.249,12.769L9.782,8.302Z" style="fill:rgb(136,136,136);fill-rule:nonzero;"/>
            <path d="M12.383,18.687C12.383,18.135 11.935,17.687 11.383,17.687L5.066,17.687C4.514,17.687 4.066,18.135 4.066,18.687C4.066,19.239 4.514,19.687 5.066,19.687L11.383,19.687C11.935,19.687 12.383,19.239 12.383,18.687Z" style="fill:rgb(136,136,136);fill-rule:nonzero;"/>
            <path d="M12.834,23.191L8.367,27.658C7.976,28.049 7.976,28.681 8.367,29.072C8.562,29.267 8.818,29.365 9.074,29.365C9.33,29.365 9.586,29.267 9.781,29.072L14.248,24.605C14.639,24.214 14.639,23.582 14.248,23.191C13.857,22.8 13.225,22.8 12.834,23.191Z" style="fill:rgb(136,136,136);fill-rule:nonzero;"/>
            <path d="M23.964,14.476C24.22,14.476 24.476,14.378 24.671,14.183L29.138,9.716C29.529,9.325 29.529,8.693 29.138,8.302C28.747,7.911 28.115,7.911 27.724,8.302L23.257,12.769C22.866,13.16 22.866,13.792 23.257,14.183C23.452,14.378 23.708,14.476 23.964,14.476Z" style="fill:rgb(136,136,136);fill-rule:nonzero;"/>
        </g>
    </g>
</svg>
