<?xml version="1.0" encoding="UTF-8" standalone="no"?>
<!DOCTYPE svg PUBLIC "-//W3C//DTD SVG 1.1//EN" "http://www.w3.org/Graphics/SVG/1.1/DTD/svg11.dtd">
<svg width="100%" height="100%" viewBox="0 0 89 89" version="1.1" xmlns="http://www.w3.org/2000/svg" xmlns:xlink="http://www.w3.org/1999/xlink" xml:space="preserve" xmlns:serif="http://www.serif.com/" style="fill-rule:evenodd;clip-rule:evenodd;stroke-linejoin:round;stroke-miterlimit:2;">
    <g transform="matrix(0.897363,0,0,0.897363,-0.368126,-0.363541)">
        <g>
            <g>
                <g>
                    <path d="M59.6,2.5C39.1,2.5 22.4,19.2 22.4,39.7L22.4,40.5L23.3,40.5C24.7,40.5 26.2,40.6 27.6,40.9L27.6,39.8C27.6,31.4 30.9,23.7 36.2,18C36.4,18.1 36.7,18.3 37,18.5C37.2,18.7 37.3,20.3 37.2,21.9L37.2,22C37.2,22 38.5,25.3 37.3,27.9C35.9,30.7 36.2,35.2 36.9,36.3C37.5,37.2 40.6,41.1 41,41.6C41.3,42 42.4,44.8 42.5,45.2C42.6,45.6 44.6,48 46.7,48C47.9,48 49.3,48.7 50.3,49.1C50.8,49.4 51.1,49.5 51.4,49.5C51.5,49.5 51.6,49.7 51.7,49.9C52,50.4 52.5,51.2 53.6,51.8C53.9,52 54.2,52.2 54.5,52.3C55.6,52.9 57.1,53.7 57.2,54C57.2,54.1 57,54.4 56.8,54.6C56.1,55.4 55,56.7 55.3,58.4C55.7,60.8 59.1,63.7 60.3,64.4C61,64.9 60.7,69.8 60.3,70.7C60,70.9 60,71.3 60,71.8L59.6,71.8C55.8,71.8 52.2,71.1 48.8,69.9C48.6,71.6 48.1,73.3 47.6,74.9C51.4,76.2 55.4,76.9 59.6,76.9C80.1,76.9 96.8,60.2 96.8,39.7C96.8,19.2 80.1,2.5 59.6,2.5ZM87.6,55.4C83.2,63.3 75.5,69.1 66.4,71.1C66.7,70.8 67,70.5 67,70.3C67,70.2 67.4,70.1 67.6,69.9C68.1,69.6 68.7,69.3 68.9,68.9C69.3,68.3 70.3,67.2 70.8,67C71.4,66.7 75.2,63.2 75.5,62.7C76.1,61.3 76.9,59.7 77.4,59.4C78.3,58.7 77.5,57.5 77.2,57L77.1,56.9C76.8,56.4 74.6,56.1 74.3,56.2C73.9,56.2 72.1,55.2 71.9,54.8C71.9,54.2 70.1,52.5 69.6,52.5C69.4,52.5 68.3,52.2 67.7,51.5C67,50.6 64.4,50.1 63.7,50.1C63,50.1 62,50 61.3,49.6C60.6,49.3 59.6,49.7 58.5,50.2C58.3,50.3 58.1,50.4 57.9,50.4C57.5,50.5 55.4,50.1 54.9,49.8C54.7,49.7 54.7,48.8 54.6,48.4C54.6,47.8 54.5,47.5 54.4,47.3C54.2,47 53.7,46.9 52.8,46.6C52.5,46.6 52.2,46.5 52.1,46.4C52.1,46.3 52.3,46 52.3,45.8C52.6,45 52.8,44.5 52.7,44.1C52.6,44 52.5,43.9 52.3,43.8C51.8,43.7 51.2,44.2 50.5,44.7C50.2,44.9 49.7,45.3 49.6,45.3C49.2,45.3 48.3,44.9 47.3,44.3C46.7,43.9 47.4,42.1 47.7,41.2C47.8,40.8 48,40.4 48,40.2C48,40 49.1,39.7 50.6,39.7C51,39.7 51.6,39.6 52.2,39.5C52.7,39.4 53.2,39.3 53.5,39.3C53.7,39.3 54.1,39.9 54.4,40.3C54.8,40.9 55.1,41.3 55.5,41.3C56.1,41.2 56.1,40.4 56,39.8L56,39.3C56.1,38.9 56.9,37.6 57.5,37.2C58.3,36.7 59.3,35.3 59,34.5C59,34.2 60.4,33.3 60.8,33C61,32.9 61.2,32.7 61.3,32.6C61.5,32.5 61.6,32.4 61.8,32.3C62.3,32 62.9,31.7 62.9,30.9C62.9,30.4 64.4,30.2 65.3,30.1C65.5,30.1 65.7,30 65.9,30C66.5,29.9 66.8,29.7 66.9,29.5C67.1,29.2 66.9,28.8 66.8,28.4C66.8,28.3 66.7,28.2 66.6,28C66.3,27.3 66.5,26.8 67.1,26.3C67.4,26.1 68,26 68.5,25.9C69.1,25.9 69.8,25.8 70.4,25.5C70.8,25.3 71.1,25.1 71.2,24.8C71.3,24.4 71,24.1 70.8,23.8C70.7,23.7 70.6,23.6 70.5,23.4C70.2,22.7 69.6,22.3 69.2,22C69,21.8 68.8,20.9 68.7,20.4C68.6,20 68.6,19.7 68.5,19.5C68.4,19.3 68.3,19.1 68.1,19.1C67.6,18.9 66.8,19.2 66.4,19.4C66.4,19.3 66.3,19.1 66.3,19C66.2,18.7 66.2,18.3 66,18.2C65.9,18.1 65.6,17.8 65.3,17.6C64.8,17.2 64.2,16.6 63.9,16.3C63.7,16.1 63.4,16 63.3,16.1C62.8,16.2 62.3,16.8 61.9,17.5C61.8,17.6 61.8,17.7 61.8,17.7C61.1,18.7 61,19.5 61.5,19.9C61.5,19.9 61.6,20.1 61.4,20.4C61.2,20.9 60.8,21.3 60.6,21.3C60,21.3 59.8,22.1 59.6,22.9C59.6,23.2 59.5,23.7 59.4,23.9C59.2,23.8 59.1,23.3 59.1,21.8L59.1,21.6C59.1,21.4 59,21.3 58.9,21.2C58.7,21 58.4,21 58.2,21.1C57.9,21.1 57.8,21.1 57.7,21C57.3,20.4 55.6,19.8 55,19.5L55,17.5C55.2,17.2 57.9,15.4 58.5,15.2C59.3,14.9 61.5,13.5 61.9,13.2C62.3,12.9 62.3,12.6 62.3,12.4C62.2,11.7 61,11.3 60.5,11.1C60.1,10.2 59.5,10.2 58.7,10.2C58.3,10.2 57.9,10.2 57.3,10.1C55.3,9.8 53.6,9.7 52.3,9.9C51.3,10 50.2,9.8 49.3,9.6C48.8,9.5 48.4,9.4 48.1,9.4C51.7,8 55.5,7.2 59.6,7.2C64,7.2 68.2,8.1 72,9.7C72.1,10.1 72.2,10.4 72.4,10.7C72.8,11.6 73.5,13.2 73.5,14.4C73.5,15.6 73.6,16.9 73.5,17.3C73.4,17.7 75.9,20.5 76.5,20.6C77.1,20.7 77.4,20.3 77.8,19.8C78.2,19.2 78.6,18.6 79.6,17.8C80.5,17.1 82.5,17.4 83.1,17.4C84.1,18.5 85.1,19.7 86,21C85.8,21.2 85.6,21.3 85.5,21.4C85,21.9 83.7,23.2 83.9,24.2C84.1,25.2 85.1,26.4 86.4,27.1C87.7,27.8 87.8,29.1 87.8,29.3C87.8,29.5 89.6,30.7 89.6,30.7C89.6,30.7 88.8,32.2 88.5,32.2C88.1,32.2 87.8,33.7 87.8,34.3C87.8,34.9 88.6,36 89.4,36.6C90.2,37.2 91.5,35.5 91.5,35.5C91.6,36.5 91.7,37.4 91.7,38.4C90.9,38.4 89.5,39 89.1,39.4C88.6,39.9 87.4,43.6 86.9,44C86.4,44.4 85.3,49.5 85.2,50.1C85,51.1 86.6,55.4 87.6,55.4Z" style="fill:rgb(136,136,136);fill-rule:nonzero;"/>
                    <path d="M39.8,77.7C42.1,74.4 43.4,70.5 43.4,66.2C43.4,55.1 34.4,46.1 23.3,46.1C12.2,46.1 3.2,55.1 3.2,66.2C3.2,77.3 12.2,86.3 23.3,86.3C27.6,86.3 31.5,85 34.8,82.7L46.7,96C48.4,97.9 51.4,98 53.3,96.2C55.1,94.4 55.1,91.4 53.1,89.6L39.8,77.7ZM23.3,81.3C15,81.3 8.3,74.6 8.3,66.3C8.3,58 15,51.3 23.3,51.3C31.6,51.3 38.3,58 38.3,66.3C38.3,74.6 31.6,81.3 23.3,81.3Z" style="fill:rgb(136,136,136);fill-rule:nonzero;"/>
                    <path d="M30.2,63.7L25.9,63.7L25.9,59.4C25.9,58 24.7,56.8 23.3,56.8C21.9,56.8 20.7,58 20.7,59.4L20.7,63.7L16.4,63.7C15,63.7 13.8,64.9 13.8,66.3C13.8,67.7 15,68.9 16.4,68.9L20.7,68.9L20.7,73.2C20.7,74.6 21.9,75.8 23.3,75.8C24.7,75.8 25.9,74.6 25.9,73.2L25.9,68.9L30.2,68.9C31.6,68.9 32.8,67.7 32.8,66.3C32.8,64.8 31.6,63.7 30.2,63.7Z" style="fill:rgb(136,136,136);fill-rule:nonzero;"/>
                </g>
            </g>
        </g>
    </g>
</svg>
