<?xml version="1.0" encoding="UTF-8" standalone="no"?>
<!DOCTYPE svg PUBLIC "-//W3C//DTD SVG 1.1//EN" "http://www.w3.org/Graphics/SVG/1.1/DTD/svg11.dtd">
<svg width="100%" height="100%" viewBox="0 0 89 89" version="1.1" xmlns="http://www.w3.org/2000/svg" xmlns:xlink="http://www.w3.org/1999/xlink" xml:space="preserve" xmlns:serif="http://www.serif.com/" style="fill-rule:evenodd;clip-rule:evenodd;stroke-linejoin:round;stroke-miterlimit:2;">
    <g transform="matrix(10.7119,0,0,10.7119,1.65222,1.65222)">
        <path d="M0,0L0,2L2,2L2,0L0,0ZM3,0L3,2L5,2L5,0L3,0ZM6,0L6,2L8,2L8,0L6,0ZM0,3L0,5L2,5L2,3L0,3ZM3,3L3,5L5,5L5,3L3,3ZM6,3L6,5L8,5L8,3L6,3ZM0,6L0,8L2,8L2,6L0,6ZM3,6L3,8L5,8L5,6L3,6ZM6,6L6,8L8,8L8,6L6,6Z" style="fill:rgb(136,136,136);fill-rule:nonzero;"/>
    </g>
</svg>
