<?xml version="1.0" encoding="UTF-8" standalone="no"?>
<!DOCTYPE svg PUBLIC "-//W3C//DTD SVG 1.1//EN" "http://www.w3.org/Graphics/SVG/1.1/DTD/svg11.dtd">
<svg width="100%" height="100%" viewBox="0 0 89 89" version="1.1" xmlns="http://www.w3.org/2000/svg" xmlns:xlink="http://www.w3.org/1999/xlink" xml:space="preserve" xmlns:serif="http://www.serif.com/" style="fill-rule:evenodd;clip-rule:evenodd;stroke-linejoin:round;stroke-miterlimit:2;">
    <g transform="matrix(0.961516,0,0,0.937125,-1.17201,-0.0126177)">
        <path d="M88.281,62.336C84.021,63.46 79.631,64.019 75.225,64C73.979,64 72.734,63.955 71.504,63.872C70.819,59.753 69.081,55.881 66.459,52.631C68.86,50.453 71.988,49.246 75.229,49.246C82.389,49.246 88.281,55.137 88.281,62.298C88.281,62.298 88.281,62.339 88.281,62.339L88.281,62.336ZM67.6,68.668C67.611,68.399 67.616,68.13 67.616,67.863C67.616,56.828 58.536,47.748 47.501,47.748C36.466,47.748 27.386,56.828 27.386,67.863C27.386,68.13 27.386,68.399 27.402,68.668C33.949,70.471 40.712,71.368 47.502,71.332C54.292,71.368 61.055,70.471 67.602,68.668L67.6,68.668ZM6.719,62.336C6.719,62.336 6.719,62.297 6.719,62.296C6.719,55.135 12.611,49.244 19.771,49.244C23.012,49.244 26.14,50.451 28.541,52.629C25.921,55.878 24.184,59.75 23.5,63.867C22.27,63.95 21.025,63.995 19.78,63.995C15.372,64.017 10.981,63.459 6.719,62.336ZM19.776,32.808C22.874,32.808 25.424,35.358 25.424,38.456C25.424,41.554 22.874,44.104 19.776,44.104C16.678,44.104 14.128,41.554 14.128,38.456C14.132,35.359 16.679,32.812 19.776,32.808ZM47.5,23.667C47.5,23.667 47.501,23.667 47.501,23.667C52.58,23.667 56.76,27.847 56.76,32.926C56.76,38.005 52.58,42.185 47.501,42.185C42.422,42.185 38.242,38.005 38.242,32.926C38.248,27.849 42.423,23.674 47.5,23.667ZM75.225,32.808C78.323,32.809 80.872,35.358 80.872,38.456C80.872,41.554 78.322,44.104 75.224,44.104C72.126,44.104 69.576,41.554 69.576,38.456C69.58,35.359 72.128,32.811 75.225,32.808ZM81.383,46.157C83.725,44.286 85.091,41.446 85.091,38.449C85.091,33.036 80.636,28.582 75.224,28.582C69.811,28.582 65.356,33.036 65.356,38.449C65.356,41.446 66.722,44.286 69.064,46.157C67.021,46.936 65.145,48.097 63.537,49.578C60.884,47.246 57.755,45.52 54.367,44.519C58.459,42.096 60.977,37.679 60.977,32.923C60.977,25.529 54.893,19.446 47.5,19.446C40.107,19.446 34.023,25.529 34.023,32.923C34.023,37.679 36.541,42.096 40.633,44.519C37.245,45.519 34.116,47.246 31.463,49.578C29.855,48.097 27.979,46.936 25.936,46.157C28.277,44.286 29.642,41.447 29.642,38.45C29.642,33.038 25.189,28.584 19.776,28.584C14.364,28.584 9.91,33.038 9.91,38.45C9.91,41.447 11.276,44.286 13.617,46.157C6.941,48.712 2.506,55.152 2.5,62.3C2.5,62.925 2.534,63.55 2.6,64.172C2.69,65.006 3.269,65.71 4.07,65.96C9.164,67.488 14.458,68.249 19.776,68.217C20.91,68.217 22.044,68.18 23.169,68.117C23.177,68.917 23.223,69.717 23.307,70.504C23.397,71.338 23.976,72.043 24.777,72.294C32.148,74.502 39.806,75.599 47.5,75.551C55.194,75.598 62.853,74.498 70.223,72.289C71.023,72.038 71.602,71.334 71.692,70.5C71.777,69.711 71.823,68.909 71.83,68.111C72.956,68.176 74.09,68.211 75.225,68.211C80.543,68.244 85.836,67.484 90.93,65.957C91.731,65.707 92.309,65.003 92.4,64.169C92.466,63.547 92.5,62.922 92.5,62.297C92.493,55.15 88.058,48.711 81.383,46.157Z" style="fill:rgb(136,136,136);"/>
    </g>
</svg>
