<?xml version="1.0" encoding="UTF-8" standalone="no"?>
<!DOCTYPE svg PUBLIC "-//W3C//DTD SVG 1.1//EN" "http://www.w3.org/Graphics/SVG/1.1/DTD/svg11.dtd">
<svg width="100%" height="100%" viewBox="0 0 89 89" version="1.1" xmlns="http://www.w3.org/2000/svg" xmlns:xlink="http://www.w3.org/1999/xlink" xml:space="preserve" xmlns:serif="http://www.serif.com/" style="fill-rule:evenodd;clip-rule:evenodd;stroke-linejoin:round;stroke-miterlimit:2;">
    <g transform="matrix(5.88205,0,0,5.88205,-1578.95,-31.9667)">
        <path d="M272.454,11.515L269.903,11.515L269.903,9.394L272.877,9.394L273.554,6L275.821,6L275.143,9.394L278.296,9.394L278.974,6L281.24,6L280.562,9.394L283,9.394L283,11.515L280.139,11.515L279.546,14.485L282.097,14.485L282.097,16.606L279.123,16.606L278.446,20L276.179,20L276.857,16.606L273.704,16.606L273.026,20L270.76,20L271.438,16.606L269,16.606L269,14.485L271.861,14.485L272.454,11.515ZM277.28,14.485L277.873,11.515L274.72,11.515L274.127,14.485L277.28,14.485Z" style="fill:rgb(136,136,136);"/>
    </g>
</svg>
