<?xml version="1.0" encoding="UTF-8" standalone="no"?>
<!DOCTYPE svg PUBLIC "-//W3C//DTD SVG 1.1//EN" "http://www.w3.org/Graphics/SVG/1.1/DTD/svg11.dtd">
<svg width="100%" height="100%" viewBox="0 0 89 89" version="1.1" xmlns="http://www.w3.org/2000/svg" xmlns:xlink="http://www.w3.org/1999/xlink" xml:space="preserve" xmlns:serif="http://www.serif.com/" style="fill-rule:evenodd;clip-rule:evenodd;stroke-linejoin:round;stroke-miterlimit:2;">
    <g transform="matrix(0.946629,0,0,0.946629,-2.44573,-1.46014)">
        <g>
            <path d="M55.51,77.23L47.51,80.11L47.51,77.61C47.51,77.135 47.12,76.745 46.645,76.745C46.17,76.745 45.78,77.135 45.78,77.61L45.78,81.34C45.786,81.813 46.177,82.2 46.65,82.2C46.749,82.2 46.847,82.183 46.94,82.15L56.09,78.85C56.432,78.726 56.662,78.399 56.662,78.035C56.662,77.56 56.27,77.168 55.795,77.168C55.694,77.168 55.595,77.186 55.5,77.22L55.51,77.23Z" style="fill:rgb(136,136,136);fill-rule:nonzero;"/>
            <path d="M50.81,65.18C50.752,65.163 50.691,65.154 50.63,65.154C50.284,65.154 50,65.438 50,65.784C50,65.786 50,65.788 50,65.79C50.019,66.252 50.356,66.643 50.81,66.73C50.868,66.747 50.929,66.756 50.99,66.756C51.336,66.756 51.62,66.472 51.62,66.126C51.62,66.124 51.62,66.122 51.62,66.12C51.601,65.658 51.264,65.267 50.81,65.18Z" style="fill:rgb(136,136,136);fill-rule:nonzero;"/>
            <path d="M48.01,62.7L49.17,64.7L54.51,63.22L53.48,61.43L48.01,62.7Z" style="fill:rgb(136,136,136);fill-rule:nonzero;"/>
            <path d="M59.25,66.34C59.229,66.27 59.198,66.203 59.16,66.14L54.86,59.14C54.665,58.826 54.291,58.669 53.93,58.75L45.15,60.75C44.762,60.84 44.485,61.189 44.485,61.588C44.485,61.732 44.521,61.874 44.59,62L48.59,68.93L46.18,71.78L46.18,69C46.18,68.525 45.79,68.135 45.315,68.135C44.84,68.135 44.45,68.525 44.45,69L44.45,74.1C44.441,74.17 44.441,74.24 44.45,74.31C44.475,74.392 44.512,74.469 44.56,74.54L44.68,74.67L44.79,74.74L45.17,74.74C45.253,74.752 45.337,74.752 45.42,74.74L55.07,71.44C55.222,71.388 55.358,71.294 55.46,71.17L58.92,66.92C58.965,66.862 59.002,66.798 59.03,66.73C59.039,66.657 59.039,66.583 59.03,66.51C59.021,66.437 59.03,66.51 59.03,66.51C59.038,66.444 59.038,66.376 59.03,66.31L59.25,66.34ZM54.44,70.07L48,72.27L50.13,69.75L56,68.11L54.44,70.07ZM50,68L46.62,62.14L53.62,60.54L57.08,66L50,68Z" style="fill:rgb(136,136,136);fill-rule:nonzero;"/>
            <path d="M87,36.49C84.57,36.06 77.89,34.8 76.26,34.09C75.399,33.403 74.638,32.598 74,31.7L73.9,31.58C72.261,29.385 70.307,27.444 68.1,25.82C69.21,25.649 70.268,25.236 71.2,24.61C71.472,24.458 71.642,24.17 71.642,23.858C71.642,23.387 71.254,22.998 70.782,22.998C70.765,22.998 70.747,22.999 70.73,23L70.26,23C69.978,23.041 69.691,23.017 69.42,22.93C69.26,22.77 68.98,22.12 68.98,19.51C68.975,14.229 64.631,9.885 59.35,9.88C53.93,9.88 50.61,14.24 50.61,17.36C50.608,17.72 50.833,18.044 51.17,18.17C51.507,18.296 51.51,18.3 52.01,18.43C51.845,19.458 51.91,20.51 52.2,21.51L31,24.11C30.618,24.154 30.31,24.45 30.25,24.83L26.94,45.47C26.931,45.54 26.931,45.61 26.94,45.68C26.949,45.75 26.94,45.68 26.94,45.74C26.936,45.787 26.936,45.833 26.94,45.88L26.94,45.95C26.957,45.992 26.977,46.032 27,46.07L27.05,46.14L27.12,46.22L28.12,47.22L18.74,49.34L18.56,49.41L18.5,49.41C18.44,49.453 18.387,49.503 18.34,49.56C18.296,49.615 18.259,49.676 18.23,49.74L18.23,49.81C18.224,49.87 18.224,49.93 18.23,49.99C18.236,50.05 18.23,49.99 18.23,49.99L18.23,65.48L11.23,64.91L11.04,64.91L10.83,64.97C10.762,64.998 10.698,65.035 10.64,65.08C10.588,65.124 10.541,65.175 10.5,65.23C10.46,65.286 10.426,65.346 10.4,65.41L10.4,65.48C10.398,65.513 10.398,65.547 10.4,65.58C10.391,65.65 10.391,65.72 10.4,65.79C10.409,65.86 10.4,65.79 10.4,65.79L10.76,67.79C10.814,68.069 11.001,68.304 11.26,68.42L18.33,71.6L18.33,74.19C18.33,74.509 18.508,74.802 18.79,74.95L23.25,77.34L23.25,81.05C23.248,81.359 23.413,81.646 23.68,81.8L44.38,93.8L44.5,93.85L44.58,93.85C44.656,93.86 44.734,93.86 44.81,93.85L45.15,93.85L82.36,78C82.682,77.866 82.892,77.549 82.89,77.2L82.89,72.42L87.25,70.73C87.582,70.599 87.8,70.277 87.8,69.92L87.8,49.36C87.809,49.29 87.809,49.22 87.8,49.15C87.781,49.084 87.754,49.02 87.72,48.96L87.72,48.9C87.68,48.841 87.633,48.787 87.58,48.74C87.516,48.69 87.445,48.65 87.37,48.62L70.57,42.1C70.17,40.545 69.305,39.149 68.09,38.1C68.414,37.623 68.626,37.08 68.71,36.51L72.43,40.74C72.592,40.923 72.825,41.029 73.07,41.03L86.48,41.14C87.756,41.114 88.791,40.057 88.791,38.78C88.791,37.7 88.049,36.75 87,36.49ZM59.35,11.64C63.682,11.645 67.245,15.208 67.25,19.54C67.25,22.09 67.48,23.36 68.09,24.07C67.022,24.353 65.88,24.053 65.09,23.28C62.88,21.07 63.54,15.77 63.55,15.71C63.558,15.662 63.563,15.612 63.563,15.563C63.563,15.132 63.238,14.764 62.81,14.71L62.7,14.71C62.267,14.706 61.895,15.031 61.84,15.46C61.84,15.52 61.77,15.97 61.74,16.64C58.675,17.456 55.454,17.494 52.37,16.75C53.237,13.651 56.134,11.53 59.35,11.64ZM55.35,26.2L55.35,26.25C55.488,26.556 55.795,26.752 56.13,26.75C56.254,26.749 56.377,26.722 56.49,26.67C56.593,26.622 56.684,26.554 56.76,26.47C58.933,27.286 61.368,27.026 63.32,25.77C63.453,26.091 63.767,26.301 64.115,26.301C64.362,26.301 64.597,26.195 64.76,26.01C65.052,26.108 65.339,26.222 65.62,26.35C65.166,27.234 64.804,28.162 64.54,29.12C63.6,32.12 62.78,34.05 60.1,34.05C57.42,34.05 56.66,32.05 55.75,28.94C55.509,28.028 55.191,27.138 54.8,26.28L55.35,26.2ZM53.66,19.54C53.661,19.293 53.677,19.045 53.71,18.8C56.401,19.198 59.145,19.076 61.79,18.44C61.81,20.292 62.317,22.106 63.26,23.7C62.203,24.697 60.803,25.252 59.35,25.252C56.223,25.252 53.65,22.679 53.65,19.552C53.65,19.548 53.65,19.544 53.65,19.54L53.66,19.54ZM31.86,25.74L52.86,23.19C52.983,23.407 53.116,23.617 53.26,23.82L33.14,26.27C32.758,26.314 32.45,26.61 32.39,26.99L29.39,45.99L28.74,45.34L31.86,25.74ZM69,51.72L69,51.82L68.57,56.26C66.15,57.26 64.65,57.07 63.8,56.67L63.58,54.45C63.548,54.126 63.335,53.846 63.03,53.73L54.35,50.42C56.35,50.03 58.35,49.07 58.88,46.83C59.02,46.23 60.13,45.67 61.62,45.69L63.91,47.1L67.67,49.49L67.73,49.49C68.478,49.883 68.962,50.646 69,51.49C69.038,52.334 69,51.67 69,51.72ZM57.4,53.43L60.25,54.52L53.67,56L48,53.82C47.98,53.68 47.946,53.543 47.9,53.41L47.43,51.78L53.57,54.15C53.669,54.189 53.774,54.209 53.88,54.21L54.06,54.21L57.4,53.43ZM47.47,42.88L45,43.44L48,39.57L47.47,42.88ZM47.15,44.73L47,45.59L45.78,45.87L45.62,45.33L45.54,45.05L47.15,44.73ZM43.42,42.73C43.251,42.948 43.195,43.234 43.27,43.5L46.27,53.95C46.293,54.017 46.305,54.087 46.305,54.158C46.305,54.503 46.021,54.788 45.675,54.788C45.458,54.788 45.255,54.675 45.14,54.49L39.33,44L39,43.47L39.23,42.76L42.58,37.29L45.58,39.91L43.42,42.73ZM41.42,51.27L32.91,48L38.82,46.65L41.42,51.27ZM37.76,41.96C37.722,42.019 37.692,42.083 37.67,42.15L37.29,43.33C37.216,43.564 37.245,43.819 37.37,44.03L37.86,44.87L37.97,45.07L31,46.64L34,27.91L50.46,25.91C48.069,26.904 46.026,28.585 44.59,30.74L37.76,41.96ZM29.84,48.65L42.73,53.65L43.73,55.37C44.148,56.111 44.935,56.572 45.786,56.572C46.562,56.572 47.29,56.189 47.73,55.55L50.73,56.72L42.89,58.5L22,50.41L29.84,48.65ZM21.62,67.49L33.72,72.36L27.72,71.92L19.94,68.61L16.32,67.07L21.62,67.49ZM22.7,66.06L22.7,64.06L38.3,70.37L38.3,72.37L22.7,66.06ZM38.33,74.43L38.33,76.14L28.69,74.42L28.69,74.26L28.59,73.71L38.33,74.43ZM19.88,73.79L19.88,72.49L27.59,76L27.78,76.06L39,78L39.15,78C39.622,78 40.01,77.612 40.01,77.14L40.01,69.78C40.015,69.425 39.799,69.102 39.47,68.97L22.23,62C22.125,61.957 22.013,61.934 21.9,61.934C21.433,61.934 21.048,62.314 21.04,62.78L20.97,65.78L19.87,65.69L19.87,51.46L41.87,59.96L41.87,85.59L19.88,73.79ZM43.76,91.64L24.76,80.64L24.76,78.39L42.3,87.79L42.47,87.79C42.546,87.8 42.624,87.8 42.7,87.79L43.06,87.79L43.77,87.52L43.76,91.64ZM43.6,85.77L43.6,60.06L61.36,56.06C60.739,57.341 60.656,58.818 61.13,60.16C61.344,60.663 61.661,61.116 62.06,61.49C60.13,62.96 60.49,65.14 60.79,66.95C61.12,68.077 61.096,69.278 60.72,70.39C60.655,70.513 60.621,70.651 60.621,70.79C60.621,71.262 61.01,71.65 61.481,71.65C61.484,71.65 61.487,71.65 61.49,71.65L61.65,71.65C62.468,71.493 63.274,71.275 64.06,71C65.284,72.521 66.846,73.736 68.62,74.55C69.038,74.714 69.481,74.802 69.93,74.81C70.539,74.825 71.129,74.59 71.56,74.16C73.28,72.44 71.42,70.16 70.19,68.58L69.89,68.21C71.28,68.63 72.58,68.98 73.41,68.37C73.515,68.293 73.609,68.202 73.69,68.1C74.477,69.115 75.384,70.032 76.39,70.83C77.161,71.443 78.077,71.846 79.05,72L43.6,85.77ZM65.7,70.25C66.625,69.822 67.344,69.045 67.7,68.09C68.018,68.636 68.386,69.152 68.8,69.63C69.92,71.03 70.87,72.33 70.3,72.9C70.24,72.96 70.07,73.12 69.53,73C68.046,72.418 66.733,71.472 65.71,70.25L65.7,70.25ZM75.07,67.05L75.45,67.13C76.45,67.34 77.32,67.54 77.96,67.03L78.07,66.92C78.54,67.76 79.62,69.7 79.55,70.3C78.37,70.56 76.26,68.54 75.08,67.05L75.07,67.05ZM81.14,76.62L45.49,91.83L45.49,86.89L81.15,73.09L81.14,76.62ZM86.06,69.33L81.06,71.33C81.1,71.276 81.137,71.219 81.17,71.16C81.448,70.228 81.317,69.22 80.81,68.39C81.115,68.231 81.297,67.903 81.27,67.56C80.19,55.26 78.92,52.84 78.27,52.27L86.16,50.48L86.06,69.33ZM84,49.14L78,50.5L78,49.83C77.946,48.667 77.664,47.525 77.17,46.47L84,49.14ZM77.8,55.48C78.468,58.694 78.959,61.942 79.27,65.21C79.024,65.004 78.752,64.833 78.46,64.7L78.46,60.39C78.452,59.919 78.062,59.536 77.59,59.536C77.419,59.536 77.252,59.586 77.11,59.68C76.41,60.149 75.568,60.358 74.73,60.27C74.669,60.257 74.607,60.25 74.545,60.25C74.06,60.25 73.66,60.65 73.66,61.135C73.66,61.551 73.953,61.913 74.36,62C75.153,62.15 75.973,62.081 76.73,61.8L76.73,65.66C76.47,65.66 76.1,65.55 75.83,65.49C75.235,65.316 74.62,65.222 74,65.21L74,64.06C74,63.585 73.61,63.195 73.135,63.195C72.66,63.195 72.27,63.585 72.27,64.06L72.27,66.94C71.589,66.854 70.918,66.697 70.27,66.47C69.477,66.208 68.654,66.05 67.82,66L67.82,61.47C67.82,60.995 67.43,60.605 66.955,60.605C66.48,60.605 66.09,60.995 66.09,61.47L66.09,67.52C66.09,68.28 64.39,69.09 62.71,69.58C62.771,68.598 62.701,67.613 62.5,66.65C62.23,65.01 62.1,63.91 62.81,63.13L62.81,64.78C62.81,65.255 63.2,65.645 63.675,65.645C64.15,65.645 64.54,65.255 64.54,64.78L64.54,62.78C64.596,62.791 64.653,62.797 64.71,62.797C65.183,62.797 65.572,62.408 65.572,61.935C65.572,61.526 65.281,61.171 64.88,61.09C63.96,60.9 63.171,60.309 62.73,59.48C62.544,59.01 62.488,58.499 62.57,58C63.65,58.68 65.57,59.24 68.48,58.17L68.48,59.39C68.48,59.865 68.87,60.255 69.345,60.255C69.82,60.255 70.21,59.865 70.21,59.39L70.21,57.45C70.53,57.36 70.88,57.29 71.28,57.21C72.991,56.974 74.614,56.31 76,55.28C75.641,55.985 75.076,56.564 74.38,56.94C74.112,57.094 73.945,57.381 73.945,57.69C73.945,58.164 74.336,58.555 74.81,58.555C74.961,58.555 75.109,58.515 75.24,58.44C76.425,57.798 77.335,56.745 77.8,55.48ZM70.36,55.64L70.36,55.29L70.43,55.62L70.36,55.64ZM69.43,43.5L74.52,46.28C75.79,46.9 76.05,48.53 76.19,49.97L76.34,52.66C75.244,53.934 73.786,54.844 72.16,55.27L71.61,52.5C71.582,52.368 71.524,52.245 71.44,52.14L70.7,51.14C70.544,49.807 69.744,48.632 68.56,48L65.09,45.78C64.954,45.375 64.987,44.931 65.18,44.55C65.887,43.648 66.883,43.016 68,42.76L69.43,43.5ZM68,33.12C67.837,32.908 67.585,32.784 67.318,32.784C66.846,32.784 66.458,33.172 66.458,33.644C66.458,33.786 66.493,33.925 66.56,34.05C67.69,36.54 66.38,37.46 66.24,37.55L66.14,37.62C65.443,38.145 64.557,38.352 63.7,38.19C63.641,38.177 63.58,38.171 63.52,38.171C63.046,38.171 62.656,38.561 62.656,39.035C62.656,39.441 62.943,39.795 63.34,39.88C63.652,39.947 63.971,39.98 64.29,39.98C65.164,39.972 66.021,39.73 66.77,39.28C67.411,39.713 67.928,40.306 68.27,41C68.155,40.976 68.035,40.976 67.92,41C67.6,41.07 64.72,41.76 63.66,43.75C63.504,44.041 63.396,44.355 63.34,44.68C62.11,43.91 61.57,43.59 61.34,43.46C58.02,41.56 56.9,42.73 55.97,44.22C55.48,45 55.14,45.48 54.33,45.66C53.904,45.716 53.582,46.083 53.582,46.513C53.582,46.985 53.97,47.373 54.442,47.373C54.464,47.373 54.487,47.372 54.51,47.37L54.69,47.37C55.889,47.079 56.898,46.268 57.44,45.16C57.94,44.36 58.2,43.95 59.33,44.4C58.344,44.706 57.571,45.482 57.27,46.47C56.6,49.34 51.21,48.98 50.37,48.91C49.729,48.654 49.205,48.169 48.9,47.55C50.435,47.231 51.661,46.066 52.06,44.55C52.09,44.461 52.105,44.368 52.105,44.275C52.105,43.801 51.714,43.41 51.24,43.41C50.869,43.41 50.538,43.648 50.42,44C50.23,44.852 49.613,45.548 48.79,45.84L50.43,36.52C50.44,36.467 50.445,36.414 50.445,36.36C50.445,35.888 50.057,35.5 49.585,35.5C49.316,35.5 49.062,35.626 48.9,35.84L46.74,38.62L43.6,35.87L46,31.66C47.69,29.271 50.169,27.553 53,26.81C53.442,27.663 53.777,28.566 54,29.5C54.8,32.21 55.9,35.92 60.1,35.92C64.3,35.92 65.45,32.33 66.28,29.72C66.511,28.885 66.823,28.075 67.21,27.3C69.077,28.676 70.74,30.308 72.15,32.15L69.79,35.15L68,33.12ZM87.11,38.94C87.041,39.226 86.784,39.429 86.49,39.43L73.49,39.32L71,36.47L73.32,33.52C73.921,34.389 74.697,35.121 75.6,35.67C77.75,36.6 86.36,38.12 86.69,38.18C87.012,38.276 87.203,38.614 87.12,38.94L87.11,38.94Z" style="fill:rgb(136,136,136);fill-rule:nonzero;"/>
            <path d="M59.52,8.15C59.992,8.15 60.38,7.762 60.38,7.29L60.38,4.11C60.38,3.635 59.99,3.245 59.515,3.245C59.04,3.245 58.65,3.635 58.65,4.11L58.65,7.28C58.65,7.283 58.65,7.287 58.65,7.29C58.65,7.762 59.038,8.15 59.51,8.15C59.513,8.15 59.517,8.15 59.52,8.15Z" style="fill:rgb(136,136,136);fill-rule:nonzero;"/>
            <path d="M67.86,11.66C68.088,11.661 68.308,11.571 68.47,11.41L70.71,9.17C70.872,9.008 70.963,8.789 70.963,8.56C70.963,8.087 70.573,7.697 70.1,7.697C69.871,7.697 69.652,7.788 69.49,7.95L67.25,10.19C67.081,10.352 66.986,10.576 66.986,10.81C66.986,11.282 67.374,11.67 67.846,11.67C67.851,11.67 67.855,11.67 67.86,11.67L67.86,11.66Z" style="fill:rgb(136,136,136);fill-rule:nonzero;"/>
            <path d="M70.1,19.129C70.1,19.129 70.1,19.137 70.1,19.141C70.1,19.613 70.488,20.001 70.96,20.001C70.973,20.001 70.987,20.001 71,20L74.17,20C74.645,20 75.035,19.61 75.035,19.135C75.035,18.66 74.645,18.27 74.17,18.27L71,18.27C70.987,18.269 70.973,18.269 70.96,18.269C70.488,18.269 70.1,18.657 70.1,19.129Z" style="fill:rgb(136,136,136);fill-rule:nonzero;"/>
            <path d="M50.58,11.43C50.742,11.592 50.961,11.683 51.19,11.683C51.663,11.683 52.053,11.293 52.053,10.82C52.053,10.591 51.962,10.372 51.8,10.21L49.56,8C49.398,7.838 49.179,7.747 48.95,7.747C48.477,7.747 48.087,8.137 48.087,8.61C48.087,8.839 48.178,9.058 48.34,9.22L50.58,11.43Z" style="fill:rgb(136,136,136);fill-rule:nonzero;"/>
            <path d="M57.77,39C56.435,38.877 55.231,38.136 54.52,37C54.365,36.737 54.081,36.575 53.775,36.575C53.3,36.575 52.91,36.965 52.91,37.44C52.91,37.595 52.951,37.747 53.03,37.88C53.1,38 54.76,40.77 57.77,40.77C58.245,40.77 58.635,40.38 58.635,39.905C58.635,39.43 58.245,39.04 57.77,39.04L57.77,39Z" style="fill:rgb(136,136,136);fill-rule:nonzero;"/>
            <path d="M61.59,30.38C61.699,30.38 61.808,30.36 61.91,30.32L61.97,30.32C62.28,30.185 62.481,29.878 62.481,29.54C62.481,29.423 62.457,29.307 62.41,29.2C62.219,28.765 61.709,28.56 61.27,28.74C60.95,28.876 60.741,29.192 60.741,29.54C60.741,30.009 61.121,30.399 61.59,30.41L61.59,30.38Z" style="fill:rgb(136,136,136);fill-rule:nonzero;"/>
            <path d="M58.92,30.53L59.13,30.53C59.139,30.53 59.148,30.53 59.158,30.53C59.629,30.53 60.018,30.142 60.018,29.67C60.018,29.267 59.734,28.915 59.34,28.83L59.3,28.83C59.238,28.816 59.174,28.809 59.11,28.809C58.635,28.809 58.244,29.2 58.244,29.675C58.244,30.079 58.526,30.431 58.92,30.52L58.92,30.53Z" style="fill:rgb(136,136,136);fill-rule:nonzero;"/>
            <path d="M56.45,28.7C56.607,28.951 56.884,29.103 57.18,29.1C57.654,29.095 58.042,28.704 58.042,28.23C58.042,28.067 57.996,27.908 57.91,27.77C57.752,27.536 57.488,27.395 57.205,27.395C57.036,27.395 56.87,27.445 56.73,27.54C56.335,27.802 56.219,28.338 56.47,28.74L56.45,28.7Z" style="fill:rgb(136,136,136);fill-rule:nonzero;"/>
            <path d="M63,28.61C63.131,28.684 63.279,28.722 63.43,28.72C63.741,28.721 64.031,28.557 64.19,28.29C64.261,28.163 64.299,28.02 64.299,27.874C64.299,27.565 64.13,27.279 63.86,27.13C63.44,26.9 62.905,27.052 62.67,27.47C62.459,27.875 62.606,28.38 63,28.61Z" style="fill:rgb(136,136,136);fill-rule:nonzero;"/>
            <circle cx="55.15" cy="20.44" r="0.99" style="fill:rgb(136,136,136);"/>
            <circle cx="58.44" cy="20.44" r="0.99" style="fill:rgb(136,136,136);"/>
            <path d="M60.76,22.49C60.599,22.328 60.379,22.236 60.15,22.236C59.921,22.236 59.701,22.328 59.54,22.49C59.145,22.75 58.656,22.827 58.2,22.7C58.13,22.682 58.058,22.673 57.985,22.673C57.512,22.673 57.123,23.062 57.123,23.535C57.123,23.927 57.39,24.272 57.77,24.37C58.078,24.444 58.393,24.481 58.71,24.48C59.468,24.507 60.207,24.229 60.76,23.71C60.922,23.549 61.014,23.329 61.014,23.1C61.014,22.871 60.922,22.651 60.76,22.49Z" style="fill:rgb(136,136,136);fill-rule:nonzero;"/>
        </g>
    </g>
</svg>
