<?xml version="1.0" encoding="UTF-8" standalone="no"?>
<!DOCTYPE svg PUBLIC "-//W3C//DTD SVG 1.1//EN" "http://www.w3.org/Graphics/SVG/1.1/DTD/svg11.dtd">
<svg width="100%" height="100%" viewBox="0 0 89 89" version="1.1" xmlns="http://www.w3.org/2000/svg" xmlns:xlink="http://www.w3.org/1999/xlink" xml:space="preserve" xmlns:serif="http://www.serif.com/" style="fill-rule:evenodd;clip-rule:evenodd;stroke-linejoin:round;stroke-miterlimit:2;">
    <g transform="matrix(1,0,0,1,-4.70344,-5.98)">
        <path d="M71.79,17.6C68.603,17.6 65.98,14.977 65.98,11.79C65.98,8.603 68.603,5.98 71.79,5.98C74.977,5.98 77.6,8.603 77.6,11.79C77.6,11.793 77.6,11.797 77.6,11.8C77.595,14.983 74.973,17.6 71.79,17.6ZM71.79,7.3C69.327,7.3 67.3,9.327 67.3,11.79C67.3,14.253 69.327,16.28 71.79,16.28C74.253,16.28 76.28,14.253 76.28,11.79C76.275,9.329 74.251,7.305 71.79,7.3Z" style="fill:rgb(136,136,136);fill-rule:nonzero;"/>
    </g>
    <g transform="matrix(1,0,0,1,-4.70344,-5.98)">
        <path d="M71.79,32C68.603,32 65.98,29.377 65.98,26.19C65.98,23.003 68.603,20.38 71.79,20.38C74.977,20.38 77.6,23.003 77.6,26.19C77.6,29.377 74.977,32 71.79,32ZM71.79,21.7C69.327,21.7 67.3,23.727 67.3,26.19C67.3,28.653 69.327,30.68 71.79,30.68C74.253,30.68 76.28,28.653 76.28,26.19C76.264,23.736 74.244,21.725 71.79,21.72L71.79,21.7Z" style="fill:rgb(136,136,136);fill-rule:nonzero;"/>
    </g>
    <g transform="matrix(1,0,0,1,-4.70344,-5.98)">
        <path d="M71.79,78.38C68.603,78.38 65.98,75.757 65.98,72.57C65.98,69.383 68.603,66.76 71.79,66.76C74.977,66.76 77.6,69.383 77.6,72.57C77.6,75.757 74.977,78.38 71.79,78.38ZM71.79,68.08C69.327,68.08 67.3,70.107 67.3,72.57C67.3,75.033 69.327,77.06 71.79,77.06C74.253,77.06 76.28,75.033 76.28,72.57C76.275,70.109 74.251,68.085 71.79,68.08Z" style="fill:rgb(136,136,136);fill-rule:nonzero;"/>
    </g>
    <g transform="matrix(1,0,0,1,-4.70344,-5.98)">
        <path d="M71.79,94.86C68.603,94.86 65.98,92.237 65.98,89.05C65.98,85.863 68.603,83.24 71.79,83.24C74.977,83.24 77.6,85.863 77.6,89.05C77.6,92.237 74.977,94.86 71.79,94.86ZM71.79,84.56C69.327,84.56 67.3,86.587 67.3,89.05C67.3,91.513 69.327,93.54 71.79,93.54C74.253,93.54 76.28,91.513 76.28,89.05C76.275,86.589 74.251,84.565 71.79,84.56Z" style="fill:rgb(136,136,136);fill-rule:nonzero;"/>
    </g>
    <g transform="matrix(1,0,0,1,-4.70344,-5.98)">
        <path d="M87.76,17.6C84.573,17.6 81.95,14.977 81.95,11.79C81.95,8.603 84.573,5.98 87.76,5.98C90.947,5.98 93.57,8.603 93.57,11.79C93.57,14.977 90.947,17.6 87.76,17.6ZM87.76,7.3C85.297,7.3 83.27,9.327 83.27,11.79C83.27,14.253 85.297,16.28 87.76,16.28C90.223,16.28 92.25,14.253 92.25,11.79C92.245,9.329 90.221,7.305 87.76,7.3Z" style="fill:rgb(136,136,136);fill-rule:nonzero;"/>
    </g>
    <g transform="matrix(1,0,0,1,-4.70344,-5.98)">
        <path d="M87.76,32C84.573,32 81.95,29.377 81.95,26.19C81.95,23.003 84.573,20.38 87.76,20.38C90.947,20.38 93.57,23.003 93.57,26.19C93.57,29.377 90.947,32 87.76,32ZM87.76,21.7C85.297,21.7 83.27,23.727 83.27,26.19C83.27,28.653 85.297,30.68 87.76,30.68C90.223,30.68 92.25,28.653 92.25,26.19C92.234,23.736 90.214,21.725 87.76,21.72L87.76,21.7Z" style="fill:rgb(136,136,136);fill-rule:nonzero;"/>
    </g>
    <g transform="matrix(1,0,0,1,-4.70344,-5.98)">
        <path d="M87.76,48C84.573,48 81.95,45.377 81.95,42.19C81.95,39.003 84.573,36.38 87.76,36.38C90.947,36.38 93.57,39.003 93.57,42.19C93.57,45.377 90.947,48 87.76,48ZM87.76,37.7C85.297,37.7 83.27,39.727 83.27,42.19C83.27,44.653 85.297,46.68 87.76,46.68C90.223,46.68 92.25,44.653 92.25,42.19C92.25,39.725 90.225,37.695 87.76,37.69L87.76,37.7Z" style="fill:rgb(136,136,136);fill-rule:nonzero;"/>
    </g>
    <g transform="matrix(1,0,0,1,-4.70344,-5.98)">
        <path d="M87.76,63.44C84.573,63.44 81.95,60.817 81.95,57.63C81.95,54.443 84.573,51.82 87.76,51.82C90.947,51.82 93.57,54.443 93.57,57.63C93.57,60.817 90.947,63.44 87.76,63.44ZM87.76,53.14C85.297,53.14 83.27,55.167 83.27,57.63C83.27,60.093 85.297,62.12 87.76,62.12C90.223,62.12 92.25,60.093 92.25,57.63C92.245,55.169 90.221,53.145 87.76,53.14Z" style="fill:rgb(136,136,136);fill-rule:nonzero;"/>
    </g>
    <g transform="matrix(1,0,0,1,-4.70344,-5.98)">
        <path d="M87.76,78.38C84.573,78.38 81.95,75.757 81.95,72.57C81.95,69.383 84.573,66.76 87.76,66.76C90.947,66.76 93.57,69.383 93.57,72.57C93.57,75.757 90.947,78.38 87.76,78.38ZM87.76,68.08C85.297,68.08 83.27,70.107 83.27,72.57C83.27,75.033 85.297,77.06 87.76,77.06C90.223,77.06 92.25,75.033 92.25,72.57C92.245,70.109 90.221,68.085 87.76,68.08Z" style="fill:rgb(136,136,136);fill-rule:nonzero;"/>
    </g>
    <g transform="matrix(1,0,0,1,-4.70344,-5.98)">
        <path d="M87.76,94.86C84.573,94.86 81.95,92.237 81.95,89.05C81.95,85.863 84.573,83.24 87.76,83.24C90.947,83.24 93.57,85.863 93.57,89.05C93.57,92.237 90.947,94.86 87.76,94.86ZM87.76,84.56C85.297,84.56 83.27,86.587 83.27,89.05C83.27,91.513 85.297,93.54 87.76,93.54C90.223,93.54 92.25,91.513 92.25,89.05C92.245,86.589 90.221,84.565 87.76,84.56Z" style="fill:rgb(136,136,136);fill-rule:nonzero;"/>
    </g>
    <g transform="matrix(1,0,0,1,-4.70344,-5.98)">
        <path d="M27,21.21C23.813,21.21 21.19,18.587 21.19,15.4C21.19,12.213 23.813,9.59 27,9.59C30.187,9.59 32.81,12.213 32.81,15.4C32.81,18.587 30.187,21.21 27,21.21ZM27,10.91C24.537,10.91 22.51,12.937 22.51,15.4C22.51,17.863 24.537,19.89 27,19.89C29.463,19.89 31.49,17.863 31.49,15.4C31.485,12.939 29.461,10.915 27,10.91Z" style="fill:rgb(136,136,136);fill-rule:nonzero;"/>
    </g>
    <g transform="matrix(1,0,0,1,-4.70344,-5.98)">
        <path d="M12.56,63.44C9.373,63.44 6.75,60.817 6.75,57.63C6.75,54.443 9.373,51.82 12.56,51.82C15.747,51.82 18.37,54.443 18.37,57.63C18.37,60.817 15.747,63.44 12.56,63.44ZM12.56,53.14C10.097,53.14 8.07,55.167 8.07,57.63C8.07,60.093 10.097,62.12 12.56,62.12C15.023,62.12 17.05,60.093 17.05,57.63C17.045,55.169 15.021,53.145 12.56,53.14Z" style="fill:rgb(136,136,136);fill-rule:nonzero;"/>
    </g>
    <g transform="matrix(1,0,0,1,-4.70344,-5.98)">
        <path d="M23.89,37.17C20.703,37.17 18.08,34.547 18.08,31.36C18.08,28.173 20.703,25.55 23.89,25.55C27.077,25.55 29.7,28.173 29.7,31.36C29.7,34.547 27.077,37.17 23.89,37.17ZM23.89,26.87C21.427,26.87 19.4,28.897 19.4,31.36C19.4,33.823 21.427,35.85 23.89,35.85C26.353,35.85 28.38,33.823 28.38,31.36C28.375,28.899 26.351,26.875 23.89,26.87Z" style="fill:rgb(136,136,136);fill-rule:nonzero;"/>
    </g>
    <g transform="matrix(1,0,0,1,-4.70344,-5.98)">
        <path d="M30.08,79.92C26.893,79.92 24.27,77.297 24.27,74.11C24.27,70.923 26.893,68.3 30.08,68.3C33.267,68.3 35.89,70.923 35.89,74.11C35.89,77.297 33.267,79.92 30.08,79.92ZM30.08,69.62C27.617,69.62 25.59,71.647 25.59,74.11C25.59,76.573 27.617,78.6 30.08,78.6C32.543,78.6 34.57,76.573 34.57,74.11C34.565,71.649 32.541,69.625 30.08,69.62Z" style="fill:rgb(136,136,136);fill-rule:nonzero;"/>
    </g>
    <g transform="matrix(1,0,0,1,-4.70344,-5.98)">
        <path d="M40.23,34.6C40.217,34.6 40.203,34.6 40.19,34.6C37.003,34.6 34.38,31.977 34.38,28.79C34.38,25.603 37.003,22.98 40.19,22.98C43.377,22.98 46,25.603 46,28.79C46,31.962 43.402,34.578 40.23,34.6ZM40.23,24.3C37.767,24.3 35.74,26.327 35.74,28.79C35.74,31.253 37.767,33.28 40.23,33.28C42.693,33.28 44.72,31.253 44.72,28.79C44.715,26.329 42.691,24.305 40.23,24.3Z" style="fill:rgb(136,136,136);fill-rule:nonzero;"/>
    </g>
    <g transform="matrix(1,0,0,1,-4.70344,-5.98)">
        <path d="M71.79,63.44C68.603,63.44 65.98,60.817 65.98,57.63C65.98,54.443 68.603,51.82 71.79,51.82C74.977,51.82 77.6,54.443 77.6,57.63C77.6,60.817 74.977,63.44 71.79,63.44ZM71.79,53.14C69.327,53.14 67.3,55.167 67.3,57.63C67.3,60.093 69.327,62.12 71.79,62.12C74.253,62.12 76.28,60.093 76.28,57.63C76.275,55.169 74.251,53.145 71.79,53.14Z" style="fill:rgb(136,136,136);fill-rule:nonzero;"/>
    </g>
    <g transform="matrix(1,0,0,1,-4.70344,-5.98)">
        <path d="M71.79,48C68.603,48 65.98,45.377 65.98,42.19C65.98,39.003 68.603,36.38 71.79,36.38C74.977,36.38 77.6,39.003 77.6,42.19C77.6,45.377 74.977,48 71.79,48ZM71.79,37.7C69.327,37.7 67.3,39.727 67.3,42.19C67.3,44.653 69.327,46.68 71.79,46.68C74.253,46.68 76.28,44.653 76.28,42.19C76.28,39.725 74.255,37.695 71.79,37.69L71.79,37.7Z" style="fill:rgb(136,136,136);fill-rule:nonzero;"/>
    </g>
    <g transform="matrix(1,0,0,1,-4.70344,-5.98)">
        <path d="M45.21,78.38C45.203,78.38 45.197,78.38 45.19,78.38C42.003,78.38 39.38,75.757 39.38,72.57C39.38,69.383 42.003,66.76 45.19,66.76C48.377,66.76 51,69.383 51,72.57C51,75.75 48.39,78.369 45.21,78.38ZM45.21,68.08C42.747,68.08 40.72,70.107 40.72,72.57C40.72,75.033 42.747,77.06 45.21,77.06C47.673,77.06 49.7,75.033 49.7,72.57C49.695,70.109 47.671,68.085 45.21,68.08Z" style="fill:rgb(136,136,136);fill-rule:nonzero;"/>
    </g>
    <g transform="matrix(1,0,0,1,-4.70344,-5.98)">
        <path d="M13.63,33.68C15.294,32.615 16.303,30.77 16.303,28.795C16.303,25.613 13.685,22.995 10.503,22.995C7.322,22.995 4.703,25.613 4.703,28.795C4.703,31.181 6.176,33.335 8.4,34.2C6.736,35.265 5.727,37.11 5.727,39.085C5.727,42.267 8.345,44.885 11.527,44.885C14.708,44.885 17.327,42.267 17.327,39.085C17.327,36.699 15.854,34.545 13.63,33.68ZM6,28.79C6,26.327 8.027,24.3 10.49,24.3C12.953,24.3 14.98,26.327 14.98,28.79C14.98,31.253 12.953,33.28 10.49,33.28C8.029,33.275 6.005,31.251 6,28.79ZM11.53,43.59C11.523,43.59 11.517,43.59 11.51,43.59C9.047,43.59 7.02,41.563 7.02,39.1C7.02,36.637 9.047,34.61 11.51,34.61C13.969,34.61 15.994,36.631 16,39.09C16,41.547 13.987,43.574 11.53,43.59Z" style="fill:rgb(136,136,136);fill-rule:nonzero;"/>
    </g>
    <g transform="matrix(1,0,0,1,-4.70344,-5.98)">
        <path d="M70.94,49.38L56.39,41C56.172,40.874 55.91,40.845 55.67,40.92L55.67,7.2C55.673,7.173 55.675,7.146 55.675,7.119C55.675,6.757 55.377,6.459 55.015,6.459C54.653,6.459 54.355,6.757 54.355,7.119C54.355,7.146 54.357,7.173 54.36,7.2L54.36,48.45L33.69,48.45C33.718,47.705 33.603,46.961 33.35,46.26C33.751,46.374 34.164,46.444 34.58,46.47C34.699,46.477 34.819,46.481 34.938,46.481C38.12,46.481 40.738,43.863 40.738,40.681C40.738,37.499 38.12,34.881 34.938,34.881C31.757,34.881 29.138,37.499 29.138,40.681C29.138,41.36 29.257,42.033 29.49,42.67C29.089,42.556 28.676,42.486 28.26,42.46C28.073,42.442 27.885,42.433 27.698,42.433C24.51,42.433 21.888,45.055 21.888,48.243C21.888,51.363 24.401,53.955 27.52,54.05L27.9,54.05C29.663,54.054 31.333,53.25 32.43,51.87L54.37,51.87L54.37,94.34C54.411,94.669 54.693,94.919 55.025,94.919C55.357,94.919 55.639,94.669 55.68,94.34L55.68,59.44C55.92,59.515 56.182,59.486 56.4,59.36L70.94,51C71.244,50.845 71.435,50.531 71.435,50.19C71.435,49.849 71.244,49.535 70.94,49.38ZM30.47,40.38C30.617,38.027 32.593,36.171 34.95,36.17L35.24,36.17C37.589,36.321 39.441,38.296 39.441,40.651C39.441,43.114 37.414,45.141 34.951,45.141C32.488,45.141 30.461,43.114 30.461,40.651C30.461,40.557 30.464,40.463 30.47,40.37L30.47,40.38ZM30.87,51.62C30.052,52.335 29.001,52.73 27.915,52.73C25.451,52.73 23.425,50.703 23.425,48.24C23.425,45.793 25.424,43.774 27.87,43.75L28.16,43.75C30.514,43.896 32.373,45.873 32.373,48.231C32.373,49.525 31.814,50.758 30.84,51.61L30.87,51.62Z" style="fill:rgb(136,136,136);fill-rule:nonzero;"/>
    </g>
    <g transform="matrix(1,0,0,1,-4.70344,-5.98)">
        <path d="M35.23,54C33.067,54.002 31.078,55.211 30.08,57.13C29.083,55.207 27.089,53.995 24.922,53.995C21.735,53.995 19.112,56.618 19.112,59.805C19.112,62.992 21.735,65.615 24.922,65.615C27.089,65.615 29.083,64.403 30.08,62.48C31.078,64.395 33.065,65.6 35.224,65.6C38.405,65.6 41.024,62.982 41.024,59.8C41.024,56.621 38.409,54.003 35.23,54ZM24.93,64.3C22.467,64.3 20.44,62.273 20.44,59.81C20.44,57.347 22.467,55.32 24.93,55.32C27.393,55.32 29.42,57.347 29.42,59.81C29.409,62.271 27.381,64.29 24.92,64.29L24.93,64.3ZM35.23,64.3C32.767,64.3 30.74,62.273 30.74,59.81C30.74,57.347 32.767,55.32 35.23,55.32C37.693,55.32 39.72,57.347 39.72,59.81C39.709,62.267 37.687,64.285 35.23,64.29L35.23,64.3Z" style="fill:rgb(136,136,136);fill-rule:nonzero;"/>
    </g>
    <g transform="matrix(1,0,0,1,-4.70344,-5.98)">
        <path d="M18.52,64.53C16.98,64.439 15.467,64.969 14.32,66C12.53,67.579 11.886,70.106 12.7,72.35C12.299,72.236 11.886,72.166 11.47,72.14C11.283,72.122 11.095,72.113 10.908,72.113C7.72,72.113 5.098,74.735 5.098,77.923C5.098,81.043 7.611,83.635 10.73,83.73L11.11,83.73C14.29,83.72 16.901,81.1 16.901,77.92C16.901,77.241 16.782,76.568 16.55,75.93C16.951,76.044 17.364,76.114 17.78,76.14C17.967,76.158 18.155,76.167 18.342,76.167C21.53,76.167 24.152,73.545 24.152,70.357C24.152,67.237 21.639,64.645 18.52,64.55L18.52,64.53ZM14.07,81.28C13.252,81.995 12.201,82.39 11.115,82.39C8.651,82.39 6.625,80.363 6.625,77.9C6.625,75.453 8.624,73.434 11.07,73.41L11.36,73.41C13.714,73.556 15.573,75.533 15.573,77.891C15.573,79.185 15.014,80.418 14.04,81.27L14.07,81.28ZM21.12,73.7C20.301,74.419 19.248,74.815 18.158,74.815C15.695,74.815 13.668,72.788 13.668,70.325C13.668,67.862 15.695,65.835 18.158,65.835C19.449,65.835 20.678,66.391 21.53,67.36C22.258,68.177 22.661,69.234 22.661,70.328C22.661,71.622 22.098,72.853 21.12,73.7Z" style="fill:rgb(136,136,136);fill-rule:nonzero;"/>
    </g>
</svg>
