<?xml version="1.0" encoding="UTF-8" standalone="no"?>
<!DOCTYPE svg PUBLIC "-//W3C//DTD SVG 1.1//EN" "http://www.w3.org/Graphics/SVG/1.1/DTD/svg11.dtd">
<svg width="100%" height="100%" viewBox="0 0 89 89" version="1.1" xmlns="http://www.w3.org/2000/svg" xmlns:xlink="http://www.w3.org/1999/xlink" xml:space="preserve" xmlns:serif="http://www.serif.com/" style="fill-rule:evenodd;clip-rule:evenodd;stroke-linejoin:round;stroke-miterlimit:2;">
    <g transform="matrix(0.91392,0,0,0.91392,-5.76331,-10.3344)">
        <g>
            <g transform="matrix(1,0,0,1,5,10)">
                <path d="M94.75,38.84L79.719,27.633C75.66,24.598 70.289,29.449 72.887,33.789L55.188,50.461C48.43,47.492 42.977,56.621 48.879,61.16L55.336,65.973L42.891,90.145C42.54,90.824 42.735,91.656 43.345,92.114C43.954,92.571 44.809,92.52 45.36,91.989L64.973,73.156L71.43,77.969C72.52,78.781 73.817,79.211 75.153,79.211C80.422,79.352 83.391,72.699 79.883,68.871L90.813,47.133C95.677,48.43 98.837,41.848 94.755,38.844L94.75,38.84ZM49.957,83.238L57.875,67.863C59.012,68.711 61.297,70.414 62.434,71.261L49.961,83.238L49.957,83.238ZM77.664,74.824C76.687,76.191 74.609,76.496 73.289,75.461C66.957,70.734 57.059,63.363 50.742,58.652C47.496,56.144 51.137,51.245 54.476,53.64L77.027,70.449C78.41,71.48 78.695,73.441 77.664,74.824L77.664,74.824ZM77.402,66.832C72.527,63.199 62.714,55.883 57.84,52.25L75.164,35.934C78.387,38.336 84.871,43.172 88.094,45.574L77.403,66.836L77.402,66.832ZM93.199,43.531C92.684,44.222 91.703,44.363 91.012,43.851L75.981,32.644C75.289,32.128 75.149,31.148 75.66,30.457C76.176,29.765 77.157,29.624 77.848,30.14L92.879,41.347C93.563,41.835 93.715,42.871 93.195,43.535L93.199,43.531Z" style="fill:rgb(136,136,136);fill-rule:nonzero;"/>
            </g>
            <g transform="matrix(1,0,0,1,5,10)">
                <path d="M7.441,21.906L9.73,46.129C4.004,49.07 6.207,57.945 12.629,57.906C13.762,58.043 20.844,55.797 22.059,55.539L33.493,80.207C33.813,80.906 34.606,81.258 35.325,81.054C36.063,80.851 36.543,80.148 36.461,79.386L33.645,52.343L41.407,50.203C43.016,49.761 44.356,48.715 45.18,47.261C47.684,43.187 44.172,37.511 39.414,37.941L28.976,15.976C32.972,12.882 29.722,6.39 24.847,7.761L6.769,12.742C1.859,14.129 2.418,21.265 7.43,21.898L7.441,21.906ZM25.113,54.695C26.481,54.32 29.231,53.562 30.598,53.183L32.387,70.386L25.113,54.695ZM39.758,41.054C43.34,41.066 44.055,46.234 40.583,47.195C32.54,49.409 21.524,52.449 13.47,54.667C9.477,55.667 7.86,49.831 11.809,48.64L38.922,41.167C39.2,41.093 39.477,41.054 39.758,41.054L39.758,41.054ZM36.297,38.648L12.774,45.132L10.536,21.437L26.083,17.152L36.297,38.648ZM7.609,15.761L25.687,10.78C27.66,10.233 28.477,13.253 26.516,13.792L8.442,18.773C6.457,19.276 5.637,16.343 7.61,15.761L7.609,15.761Z" style="fill:rgb(136,136,136);fill-rule:nonzero;"/>
            </g>
        </g>
    </g>
</svg>
