<?xml version="1.0" encoding="UTF-8" standalone="no"?>
<!DOCTYPE svg PUBLIC "-//W3C//DTD SVG 1.1//EN" "http://www.w3.org/Graphics/SVG/1.1/DTD/svg11.dtd">
<svg width="100%" height="100%" viewBox="0 0 89 89" version="1.1" xmlns="http://www.w3.org/2000/svg" xmlns:xlink="http://www.w3.org/1999/xlink" xml:space="preserve" xmlns:serif="http://www.serif.com/" style="fill-rule:evenodd;clip-rule:evenodd;stroke-linejoin:round;stroke-miterlimit:2;">
    <g transform="matrix(0.902887,0,0,0.902887,-0.632573,-0.644338)">
        <g>
            <g>
                <g>
                    <path d="M56.7,11C57,10.9 57.3,10.9 57.5,10.9C59.8,10.9 61.7,12.8 61.7,15.1L61.7,45.4C61.7,46.4 62.5,47.2 63.5,47.2C64.5,47.2 65.3,46.4 65.3,45.4L65.3,22.1C65.3,19.8 66.9,17.9 69,17.7L69.4,17.7C71.7,17.7 73.6,19.6 73.6,21.9L73.6,48.8C74.8,48.9 76,49.1 77.1,49.4L77.1,21.8C77.1,17.6 73.6,14.1 69.4,14.1L68.6,14.1C67.3,14.2 66.2,14.7 65.2,15.3L65.2,15C65.2,10.8 61.8,7.3 57.5,7.3C57,7.3 56.5,7.3 56,7.4C55,7.6 54,8 53.2,8.6C52.5,5.1 49.4,2.4 45.6,2.4C45.1,2.4 44.6,2.4 44.1,2.5C41,3.1 38.7,5.5 38.1,8.6C36.9,7.8 35.4,7.3 33.8,7.3C33.3,7.3 32.8,7.3 32.3,7.4C28.7,8.1 26.1,11.3 26.1,15.1L26.1,44.4L23.6,41C22.5,39.5 21,38.4 19.3,37.9C18.5,37.7 17.8,37.6 17,37.6C15.4,37.6 13.8,38.1 12.4,39C9,41.4 7.9,45.9 9.8,49.6L23.7,76.8C25.7,80.7 28.7,83.9 32.4,86.2C36.1,88.5 40.3,89.7 44.7,89.7L50.7,89.7L50.7,86.2L44.7,86.2C41,86.2 37.4,85.2 34.2,83.2C31,81.3 28.5,78.5 26.8,75.2L12.9,48C11.8,45.9 12.5,43.3 14.3,42C15.1,41.5 16,41.2 16.9,41.2C17.3,41.2 17.8,41.2 18.2,41.4C19.2,41.7 20,42.4 20.7,43.2L27.1,51.8C27.4,52.2 27.8,52.3 28.2,52.3C28.9,52.3 29.6,51.8 29.6,50.9L29.6,15.1C29.6,13.1 31,11.2 33,10.8C33.3,10.7 33.6,10.7 33.8,10.7C36.1,10.7 38,12.6 38,14.9L38,43.6C38,44.6 38.8,45.4 39.8,45.4C40.8,45.4 41.6,44.6 41.6,43.6L41.6,10.4C41.6,8.4 43,6.5 44.9,6.1C45.2,6.1 45.5,6 45.7,6C48,6 49.9,7.9 49.9,10.2L49.9,43.8C49.9,44.8 50.7,45.6 51.7,45.6C52.7,45.6 53.5,44.8 53.5,43.8L53.5,15.3C53.4,13.2 54.7,11.4 56.7,11Z" style="fill:rgb(136,136,136);fill-rule:nonzero;"/>
                    <path d="M88.1,70.1C87.5,69.8 86.9,69.6 86.3,69.3L86.3,65.8C86.3,58.3 80.2,52.1 72.6,52.1C65,52.1 59,58.4 59,65.9L59,69.4C58.4,69.6 57.8,69.9 57.2,70.2C55.4,71 54.2,72.9 54.2,74.9L54.2,92.5C54.2,95.3 56.5,97.6 59.3,97.6L86,97.6C88.8,97.6 91.1,95.3 91.1,92.5L91.1,74.8C91.1,72.8 89.9,70.9 88.1,70.1ZM87.6,92.4C87.6,93.3 86.9,94 86,94L59.3,94C58.4,94 57.7,93.3 57.7,92.4L57.7,74.8C57.7,74.2 58.1,73.6 58.6,73.3C59.5,72.9 60.4,72.6 61.3,72.2C62,72 62.5,71.3 62.5,70.5L62.5,65.8C62.5,60.2 67,55.7 72.6,55.7C78.2,55.7 82.7,60.2 82.7,65.8L82.7,70.5C82.7,71.3 83.2,71.9 83.9,72.2C84.9,72.5 85.8,72.9 86.6,73.3C87.2,73.6 87.5,74.1 87.5,74.7L87.5,92.4L87.6,92.4Z" style="fill:rgb(136,136,136);fill-rule:nonzero;"/>
                    <path d="M72.6,59.8C69.2,59.8 66.5,62.5 66.5,65.9L66.5,68.8C66.5,69.3 66.7,69.8 67.1,70.1C67.5,70.4 68,70.6 68.5,70.5C71.2,70.2 74,70.2 76.7,70.5L76.9,70.5C77.3,70.5 77.7,70.3 78.1,70.1C78.5,69.8 78.7,69.3 78.7,68.8L78.7,65.9C78.7,62.5 76,59.8 72.6,59.8ZM75.2,66.9C74.3,66.8 73.5,66.8 72.6,66.8C71.7,66.8 70.9,66.8 70,66.9L70,65.9C70,64.5 71.1,63.3 72.6,63.3C74.1,63.3 75.2,64.4 75.2,65.9L75.2,66.9Z" style="fill:rgb(136,136,136);fill-rule:nonzero;"/>
                    <path d="M76.2,79.2C76.2,77.2 74.6,75.7 72.7,75.7C70.8,75.7 69.2,77.3 69.2,79.2C69.2,80.6 70,81.7 71.1,82.3L69.7,87.5C69.6,87.8 69.7,88 69.8,88.2C70,88.4 70.2,88.5 70.5,88.5L74.8,88.5C75.1,88.5 75.3,88.4 75.5,88.2C75.7,88 75.7,87.7 75.7,87.5L74.3,82.3C75.4,81.8 76.2,80.6 76.2,79.2Z" style="fill:rgb(136,136,136);fill-rule:nonzero;"/>
                </g>
            </g>
        </g>
    </g>
</svg>
