<?xml version="1.0" encoding="UTF-8" standalone="no"?>
<!DOCTYPE svg PUBLIC "-//W3C//DTD SVG 1.1//EN" "http://www.w3.org/Graphics/SVG/1.1/DTD/svg11.dtd">
<svg width="100%" height="100%" viewBox="0 0 89 89" version="1.1" xmlns="http://www.w3.org/2000/svg" xmlns:xlink="http://www.w3.org/1999/xlink" xml:space="preserve" xmlns:serif="http://www.serif.com/" style="fill-rule:evenodd;clip-rule:evenodd;stroke-linejoin:round;stroke-miterlimit:2;">
    <g transform="matrix(1.33894,0,0,1.33894,1.65294,1.65558)">
        <g>
            <path d="M52.799,16.686C52.879,16.686 52.958,16.684 53.038,16.68C54.249,16.618 55.364,16.088 56.176,15.187C56.988,14.287 57.402,13.124 57.339,11.913C57.277,10.702 56.746,9.587 55.846,8.776C54.946,7.964 53.775,7.551 52.573,7.612C51.361,7.674 50.247,8.204 49.435,9.105C47.758,10.963 47.906,13.84 49.764,15.517C50.605,16.276 51.675,16.686 52.799,16.686ZM50.919,10.445C51.374,9.941 51.997,9.645 52.675,9.61C52.719,9.608 52.764,9.607 52.808,9.607C53.437,9.607 54.036,9.836 54.506,10.261C55.01,10.715 55.307,11.338 55.341,12.016C55.376,12.694 55.146,13.344 54.692,13.848C54.237,14.352 53.614,14.648 52.936,14.683C52.247,14.718 51.607,14.487 51.104,14.033C50.064,13.095 49.982,11.485 50.919,10.446L50.919,10.445Z" style="fill:rgb(136,136,136);fill-rule:nonzero;"/>
            <path d="M2,64L62,64C63.103,64 64,63.103 64,62L64,12C64,10.959 63.198,10.111 62.181,10.018C63.375,6.831 63.824,4.27 63.988,2.687C64.069,1.902 63.781,1.151 63.199,0.625C62.617,0.099 61.84,-0.111 61.067,0.051C58.565,0.574 53.627,2.085 47.894,6.349C45.485,6.466 40.647,7.087 36.484,9.999L2,9.999C0.897,9.999 0,10.896 0,11.999L0,62C0,63.103 0.897,64 2,64ZM50.9,62C50.438,57.717 48.857,54.638 46.165,52.872C42.302,50.336 37.381,51.294 35.467,51.812C33.781,49.272 30.698,48.449 26.685,49.494C26.654,49.505 26.612,49.514 26.573,49.451C26.533,49.388 26.561,49.355 26.583,49.329L30.657,44.536C31.014,44.115 30.964,43.484 30.543,43.127C30.125,42.77 29.492,42.819 29.134,43.241L25.06,48.034C24.453,48.749 24.382,49.722 24.88,50.514C25.377,51.307 26.286,51.662 27.191,51.429C30.661,50.524 32.986,51.205 34.107,53.447C34.334,53.898 34.86,54.113 35.336,53.942C35.395,53.921 41.115,51.942 45.077,54.548C47.199,55.944 48.473,58.456 48.894,61.999L2,61.999L2,38.109C3.736,38.432 7,39.736 7,44.999C7,45.377 7.214,45.721 7.552,45.892C7.694,45.963 7.847,45.998 8,45.998C8.212,45.998 8.422,45.931 8.598,45.801C8.626,45.78 11.487,43.698 13.731,45.237C14.576,45.815 15.671,45.741 16.397,45.054L33.588,28.767C33.31,29.686 33.243,30.915 33.657,32.542C33.756,32.934 34.081,33.227 34.48,33.285C34.993,33.36 35.462,33.394 35.893,33.394C36.601,33.394 37.197,33.297 37.71,33.147L31.98,39.888C31.623,40.309 31.673,40.94 32.094,41.297C32.282,41.457 32.512,41.535 32.741,41.535C33.024,41.535 33.305,41.415 33.503,41.182L40.425,33.039C40.479,32.976 40.505,32.901 40.54,32.83C40.558,32.819 40.577,32.812 40.595,32.799C43.502,30.637 44.887,28.816 45.549,27.604L47.116,29.017C47.306,29.188 47.546,29.274 47.786,29.274C48.023,29.274 48.261,29.19 48.45,29.022C48.824,28.69 49.187,28.359 49.543,28.028L53.078,31.217C53.263,31.383 53.501,31.474 53.748,31.474C53.765,31.474 53.782,31.474 53.8,31.473C54.065,31.459 54.313,31.341 54.49,31.144C56.481,28.937 57.633,26.4 58.292,23.997L62,23.997L62,62L50.9,62ZM36.138,26.217L35.718,26.174C37.456,23.676 38.979,22.685 39.694,22.326L44.006,26.216C43.699,26.919 42.844,28.378 40.555,30.291L40.502,30.103C40.382,29.68 39.997,29.397 39.558,29.388C39.124,29.346 38.72,29.669 38.582,30.085C38.561,30.149 38.048,31.55 35.452,31.381C35.021,28.8 36.356,28.163 36.398,28.144C36.828,27.976 37.086,27.536 37.025,27.079C36.963,26.621 36.596,26.267 36.137,26.219L36.138,26.217ZM59.248,5.004C59.889,5.582 60.56,6.093 61.22,6.512C60.018,10.926 57.136,17.453 50.327,24.456L40.815,15.874C47.082,8.383 53.279,4.846 57.545,3.197C58.029,3.811 58.607,4.425 59.248,5.004ZM53.647,29.04L50.988,26.641C53.422,24.228 55.407,21.856 57.02,19.586C56.793,22.311 56.01,25.991 53.647,29.04ZM39.56,17.435L48.902,25.864C48.532,26.22 48.178,26.574 47.787,26.932L43.2,22.793L38.612,18.655C38.927,18.229 39.244,17.84 39.56,17.436L39.56,17.435ZM62,12L62,22L58.739,22C59.138,19.73 59.144,17.73 59.074,16.437C60,14.881 60.755,13.395 61.371,12L62,12ZM61.475,2.01C61.664,1.968 61.798,2.055 61.859,2.11C61.92,2.165 62.018,2.286 61.998,2.481C61.943,3.013 61.848,3.672 61.705,4.423C61.331,4.152 60.956,3.848 60.589,3.519C60.223,3.188 59.882,2.846 59.574,2.501C60.307,2.281 60.953,2.119 61.476,2.01L61.475,2.01ZM38.573,15.44L35.914,13.041C38.703,10.377 42.284,9.22 44.972,8.715C42.88,10.553 40.724,12.771 38.573,15.44ZM34.142,12C34.005,12.141 33.864,12.272 33.731,12.419C33.361,12.829 33.393,13.461 33.803,13.832L37.338,17.021C37.045,17.409 36.753,17.804 36.462,18.21C36.164,18.624 36.226,19.195 36.604,19.537L38.128,20.912C36.903,21.681 35.103,23.24 33.221,26.363L15.022,43.603C14.982,43.638 14.912,43.624 14.86,43.586C12.701,42.112 10.372,42.686 8.9,43.345C8.196,37.769 3.96,36.43 2,36.106L2,24L32.09,24C32.643,24 33.09,23.552 33.09,23C33.09,22.448 32.643,22 32.09,22L2,22L2,12L34.142,12Z" style="fill:rgb(136,136,136);fill-rule:nonzero;"/>
            <path d="M7,20C8.654,20 10,18.654 10,17C10,15.346 8.654,14 7,14C5.346,14 4,15.346 4,17C4,18.654 5.346,20 7,20ZM7,16C7.552,16 8,16.449 8,17C8,17.551 7.552,18 7,18C6.448,18 6,17.551 6,17C6,16.449 6.448,16 7,16Z" style="fill:rgb(136,136,136);fill-rule:nonzero;"/>
            <path d="M15,20C16.654,20 18,18.654 18,17C18,15.346 16.654,14 15,14C13.346,14 12,15.346 12,17C12,18.654 13.346,20 15,20ZM15,16C15.552,16 16,16.449 16,17C16,17.551 15.552,18 15,18C14.448,18 14,17.551 14,17C14,16.449 14.448,16 15,16Z" style="fill:rgb(136,136,136);fill-rule:nonzero;"/>
            <path d="M23,20C24.654,20 26,18.654 26,17C26,15.346 24.654,14 23,14C21.346,14 20,15.346 20,17C20,18.654 21.346,20 23,20ZM23,16C23.552,16 24,16.449 24,17C24,17.551 23.552,18 23,18C22.448,18 22,17.551 22,17C22,16.449 22.448,16 23,16Z" style="fill:rgb(136,136,136);fill-rule:nonzero;"/>
        </g>
    </g>
</svg>
