<?xml version="1.0" encoding="UTF-8" standalone="no"?>
<!DOCTYPE svg PUBLIC "-//W3C//DTD SVG 1.1//EN" "http://www.w3.org/Graphics/SVG/1.1/DTD/svg11.dtd">
<svg width="100%" height="100%" viewBox="0 0 89 89" version="1.1" xmlns="http://www.w3.org/2000/svg" xmlns:xlink="http://www.w3.org/1999/xlink" xml:space="preserve" xmlns:serif="http://www.serif.com/" style="fill-rule:evenodd;clip-rule:evenodd;stroke-linejoin:round;stroke-miterlimit:2;">
    <g transform="matrix(4.19058,0,0,4.19058,-7.88319,-7.88663)">
        <path d="M15.54,14.18L15.93,17.17C15.962,17.352 15.883,17.537 15.73,17.64C15.648,17.707 15.545,17.742 15.44,17.74C15.364,17.738 15.289,17.721 15.22,17.69L12.5,16.39L9.78,17.69C9.614,17.77 9.417,17.75 9.27,17.64C9.117,17.537 9.038,17.352 9.07,17.17L9.46,14.18L7.38,11.99C7.254,11.856 7.212,11.664 7.27,11.49C7.326,11.319 7.473,11.192 7.65,11.16L10.62,10.6L12.06,7.95C12.156,7.8 12.322,7.71 12.5,7.71C12.678,7.71 12.844,7.8 12.94,7.95L14.38,10.6L17.35,11.16C17.527,11.192 17.674,11.319 17.73,11.49C17.788,11.664 17.746,11.856 17.62,11.99L15.54,14.18ZM7.994,14.13L6.514,13.43C6.378,13.365 6.22,13.365 6.084,13.43L4.566,14.153L4.786,12.486C4.806,12.337 4.757,12.186 4.653,12.077L3.494,10.854L5.152,10.543C5.3,10.515 5.428,10.422 5.5,10.29L6.3,8.81L6.91,9.931C6.998,10.091 7.166,10.192 7.349,10.192C7.623,10.192 7.849,9.966 7.849,9.692C7.849,9.608 7.828,9.525 7.788,9.452L6.738,7.522C6.65,7.362 6.482,7.262 6.299,7.262C6.116,7.262 5.947,7.362 5.86,7.523L4.734,9.6L2.408,10.036C2.172,10.08 2,10.288 2,10.527C2,10.655 2.049,10.778 2.137,10.871L3.763,12.589L3.455,14.933C3.452,14.954 3.451,14.976 3.451,14.998C3.451,15.272 3.677,15.498 3.951,15.498C4.025,15.498 4.099,15.481 4.166,15.449L6.3,14.436L7.565,15.036C7.621,15.057 7.681,15.068 7.742,15.068C8.016,15.068 8.242,14.843 8.242,14.568C8.242,14.39 8.147,14.225 7.993,14.136L7.994,14.13ZM22.976,10.377C22.919,10.203 22.772,10.073 22.592,10.04L20.266,9.6L19.14,7.523C19.053,7.362 18.884,7.262 18.701,7.262C18.518,7.262 18.35,7.362 18.262,7.522L17.212,9.452C17.172,9.525 17.151,9.608 17.151,9.692C17.151,9.966 17.377,10.192 17.651,10.192C17.834,10.192 18.002,10.091 18.09,9.931L18.7,8.81L19.5,10.29C19.572,10.422 19.7,10.515 19.848,10.543L21.506,10.854L20.347,12.078C20.243,12.187 20.194,12.338 20.214,12.487L20.434,14.154L18.916,13.431C18.78,13.366 18.622,13.366 18.486,13.431L17.006,14.131C16.812,14.204 16.683,14.391 16.683,14.599C16.683,14.873 16.908,15.099 17.183,15.099C17.271,15.099 17.358,15.075 17.434,15.031L18.699,14.431L20.834,15.448C20.901,15.48 20.975,15.497 21.05,15.497L21.054,15.497C21.329,15.497 21.554,15.271 21.554,14.997C21.554,14.975 21.553,14.954 21.55,14.932L21.242,12.588L22.868,10.87C22.99,10.737 23.032,10.549 22.976,10.377Z" style="fill:rgb(136,136,136);fill-rule:nonzero;"/>
    </g>
</svg>
