<?xml version="1.0" encoding="UTF-8" standalone="no"?>
<!DOCTYPE svg PUBLIC "-//W3C//DTD SVG 1.1//EN" "http://www.w3.org/Graphics/SVG/1.1/DTD/svg11.dtd">
<svg width="100%" height="100%" viewBox="0 0 89 89" version="1.1" xmlns="http://www.w3.org/2000/svg" xmlns:xlink="http://www.w3.org/1999/xlink" xml:space="preserve" xmlns:serif="http://www.serif.com/" style="fill-rule:evenodd;clip-rule:evenodd;stroke-linejoin:round;stroke-miterlimit:2;">
    <g transform="matrix(1,0,0,1,-6,-958.362)">
        <path d="M49.497,958.362C43.11,958.362 37.899,963.483 37.712,969.8C21.578,974.563 10.359,989.12 10.359,1006.99C10.359,1007 10.359,1007.01 10.359,1007.02C10.359,1008.12 11.262,1009.02 12.359,1009.02C13.457,1009.02 14.36,1008.12 14.36,1007.02C14.36,1007.01 14.36,1007 14.36,1006.99C14.36,990.983 24.06,978.241 38.274,973.8C39.824,978.498 44.271,981.895 49.497,981.895C56.001,981.895 61.345,976.621 61.345,970.144C61.345,963.667 56.001,958.362 49.497,958.362ZM49.497,962.362C53.856,962.362 57.343,965.846 57.343,970.144C57.343,974.442 53.856,977.894 49.497,977.894C45.138,977.894 41.682,974.442 41.682,970.144C41.682,965.846 45.138,962.362 49.497,962.362ZM68.441,972.769C67.39,972.832 66.559,973.713 66.559,974.766C66.559,975.495 66.957,976.168 67.597,976.519C81.584,984.529 87.829,999.233 84.602,1013.65C84.287,1013.58 83.982,1013.5 83.665,1013.46C79.091,1012.9 74.388,1015.04 71.942,1019.24C68.68,1024.84 70.648,1032.07 76.287,1035.3C81.926,1038.53 89.156,1036.63 92.418,1031.02C95.629,1025.5 93.793,1018.38 88.354,1015.08C92.239,998.843 85.139,981.968 69.566,973.05C69.227,972.848 68.835,972.75 68.441,972.769ZM17.205,1013.96C16.919,1013.97 16.647,1013.99 16.361,1014.02C14.836,1014.21 13.331,1014.71 11.922,1015.52C6.283,1018.75 4.315,1025.98 7.577,1031.59C10.791,1037.11 17.886,1039.06 23.488,1036.02C35.718,1047.49 53.986,1049.85 69.566,1040.93C70.267,1040.6 70.716,1039.89 70.716,1039.12C70.716,1038.02 69.813,1037.12 68.715,1037.12C68.317,1037.12 67.927,1037.24 67.597,1037.46C53.631,1045.46 37.654,1043.47 26.677,1033.52C29.953,1029.83 30.69,1024.28 28.083,1019.8C25.79,1015.86 21.499,1013.75 17.205,1013.96L17.205,1013.96ZM82.039,1017.4C82.417,1017.39 82.785,1017.38 83.164,1017.43C84.176,1017.55 85.16,1017.86 86.103,1018.4C89.873,1020.56 91.149,1025.26 88.979,1028.99C86.809,1032.72 82.026,1033.99 78.257,1031.83C74.487,1029.67 73.242,1024.97 75.412,1021.24C76.836,1018.79 79.393,1017.45 82.039,1017.4L82.039,1017.4ZM17.986,1017.96C20.633,1018.02 23.19,1019.39 24.614,1021.83C26.784,1025.56 25.538,1030.24 21.769,1032.4C17.999,1034.56 13.216,1033.31 11.046,1029.58C8.876,1025.86 10.153,1021.15 13.922,1018.99C14.865,1018.45 15.85,1018.12 16.861,1017.99C17.24,1017.94 17.608,1017.95 17.986,1017.96L17.986,1017.96Z" style="fill:rgb(136,136,136);fill-rule:nonzero;"/>
    </g>
</svg>
