<?xml version="1.0" encoding="UTF-8" standalone="no"?>
<!DOCTYPE svg PUBLIC "-//W3C//DTD SVG 1.1//EN" "http://www.w3.org/Graphics/SVG/1.1/DTD/svg11.dtd">
<svg width="100%" height="100%" viewBox="0 0 89 89" version="1.1" xmlns="http://www.w3.org/2000/svg" xmlns:xlink="http://www.w3.org/1999/xlink" xml:space="preserve" xmlns:serif="http://www.serif.com/" style="fill-rule:evenodd;clip-rule:evenodd;stroke-linejoin:round;stroke-miterlimit:2;">
    <g transform="matrix(0.864049,0,0,0.864049,1.29553,1.29915)">
        <g>
            <path d="M94.348,31.012L90.696,31.012L90.696,27.567C90.696,24.45 88.161,21.914 85.043,21.914L80.77,21.914L80.77,17.848C80.77,14.731 78.235,12.196 75.118,12.196L5.653,12.2C2.536,12.2 0,14.735 0,17.852L0,63.336C0,66.453 2.536,68.984 5.653,68.984L9.926,68.984L9.926,73.051C9.926,76.168 12.461,78.703 15.578,78.703L19.231,78.703L19.231,82.148C19.231,85.266 21.766,87.801 24.883,87.801L94.352,87.801C97.469,87.801 100.004,85.265 100.004,82.148L100,36.664C100,33.547 97.465,31.012 94.348,31.012L94.348,31.012ZM5.653,16.887L75.122,16.887C75.653,16.887 76.087,17.321 76.087,17.852L76.087,26.258L4.689,26.258L4.689,17.852C4.689,17.317 5.122,16.887 5.654,16.887L5.653,16.887ZM4.688,63.336L4.688,30.945L76.086,30.945L76.086,63.336C76.086,63.867 75.653,64.297 75.121,64.297L5.652,64.297C5.121,64.297 4.687,63.867 4.687,63.336L4.688,63.336ZM14.614,73.055L14.614,68.988L75.122,68.988C78.239,68.988 80.774,66.453 80.774,63.34L80.774,26.606L85.048,26.606C85.579,26.606 86.012,27.04 86.012,27.571L86.012,73.055C86.012,73.586 85.579,74.02 85.048,74.02L15.579,74.016C15.044,74.016 14.614,73.586 14.614,73.055L14.614,73.055ZM95.313,82.149C95.313,82.68 94.879,83.113 94.348,83.113L24.879,83.113C24.348,83.113 23.914,82.68 23.914,82.149L23.914,78.703L85.043,78.703C88.16,78.703 90.696,76.168 90.696,73.051L90.696,35.699L94.348,35.699C94.879,35.699 95.313,36.133 95.313,36.664L95.313,82.149Z" style="fill:rgb(136,136,136);fill-rule:nonzero;"/>
            <rect x="8.961" y="19.02" width="10.129" height="4.688" style="fill:rgb(136,136,136);fill-rule:nonzero;"/>
            <rect x="23.844" y="19.02" width="4.547" height="4.688" style="fill:rgb(136,136,136);fill-rule:nonzero;"/>
            <path d="M7.856,60.512L42.731,60.512L42.731,34.321L7.855,34.321L7.856,60.512ZM12.543,39.008L38.043,39.008L38.043,55.824L12.543,55.824L12.543,39.008Z" style="fill:rgb(136,136,136);fill-rule:nonzero;"/>
            <rect x="50.309" y="34.32" width="18.398" height="4.688" style="fill:rgb(136,136,136);fill-rule:nonzero;"/>
            <rect x="50.309" y="45.07" width="9.203" height="4.688" style="fill:rgb(136,136,136);fill-rule:nonzero;"/>
            <rect x="50.309" y="55.824" width="16.539" height="4.688" style="fill:rgb(136,136,136);fill-rule:nonzero;"/>
        </g>
    </g>
</svg>
