<?xml version="1.0" encoding="UTF-8" standalone="no"?>
<!DOCTYPE svg PUBLIC "-//W3C//DTD SVG 1.1//EN" "http://www.w3.org/Graphics/SVG/1.1/DTD/svg11.dtd">
<svg width="100%" height="100%" viewBox="0 0 1024 1024" version="1.1" xmlns="http://www.w3.org/2000/svg" xmlns:xlink="http://www.w3.org/1999/xlink" xml:space="preserve" xmlns:serif="http://www.serif.com/" style="fill-rule:evenodd;clip-rule:evenodd;stroke-linejoin:round;stroke-miterlimit:2;">
    <g transform="matrix(1.43568,0,0,1.43568,-223.066,-91.2578)">
        <g id="Page-1" serif:id="Page 1">
            <g>
                <g id="Logo---URL-copy" serif:id="Logo &amp; URL copy">
                    <g>
                        <g transform="matrix(1,0,0,1,449.21,263.232)">
                            <path d="M0,105.137L-38.383,105.137C-62.582,105.137 -82.608,85.528 -82.608,60.913L-82.608,44.224C-82.608,20.026 -62.999,0 -38.383,0L30.456,0C54.655,0 74.681,19.609 74.681,44.224L74.681,62.999C74.681,74.681 83.859,83.859 95.541,83.859C107.223,83.859 116.402,74.681 116.402,62.999L116.402,44.224C116.402,-2.921 78.018,-41.721 30.456,-41.721L-38.383,-41.721C-85.528,-41.721 -124.329,-3.338 -124.329,44.224L-124.329,60.913C-124.329,108.057 -85.945,146.858 -38.383,146.858L0,146.858C11.682,146.858 20.861,137.679 20.861,125.998C20.861,114.316 11.682,105.137 0,105.137" style="fill:rgb(136,136,136);fill-rule:nonzero;"/>
                        </g>
                        <g transform="matrix(1,0,0,1,613.174,410.089)">
                            <path d="M0,-188.579L-33.377,-188.579C-45.059,-188.579 -54.237,-179.4 -54.237,-167.718C-54.237,-156.037 -45.059,-146.858 -33.377,-146.858L0,-146.858C24.198,-146.858 44.224,-127.249 44.224,-102.634L44.224,-85.945C44.224,-61.747 24.615,-41.721 0,-41.721L-64.668,-41.721C-88.866,-41.721 -108.892,-61.33 -108.892,-85.945L-108.892,-100.547C-108.892,-112.229 -118.071,-121.408 -129.753,-121.408C-141.435,-121.408 -150.613,-112.229 -150.613,-100.547L-150.613,-85.945C-150.613,-38.8 -112.23,0 -64.668,0L0,0C47.145,0 85.945,-38.383 85.945,-85.945L85.945,-102.634C85.945,-149.778 47.145,-188.579 0,-188.579" style="fill:rgb(136,136,136);fill-rule:nonzero;"/>
                        </g>
                        <g transform="matrix(1,0,0,1,722.099,610.947)">
                            <path d="M0,-178.933C-30.47,-157.49 -25.957,-119.125 -5.646,-107.314C14.666,-95.502 19.179,-121.381 20.311,-131.541C21.443,-141.7 37.24,-143.956 40.622,-121.381C44.004,-98.807 20.311,-85.273 -9.027,-77.371C-38.365,-69.468 -84.633,-90.911 -111.714,-115.736C-138.796,-140.561 -170.96,-140.589 -199.736,-128.152C-204.179,-126.232 -207.582,-122.675 -210.085,-118.119C-212.602,-122.675 -216.011,-126.232 -220.455,-128.152C-249.23,-140.589 -281.388,-140.568 -308.476,-115.736C-335.565,-90.904 -381.825,-69.468 -411.163,-77.371C-440.501,-85.273 -464.201,-98.814 -460.812,-121.381C-457.424,-143.949 -441.626,-141.693 -440.501,-131.541C-439.377,-121.389 -434.856,-95.502 -414.545,-107.314C-394.234,-119.125 -389.72,-157.497 -420.19,-178.933C-450.66,-200.376 -521.753,-193.606 -526.266,-111.222C-530.78,-28.839 -459.125,21.443 -345.717,4.724C-249.765,-9.435 -218.592,-44.644 -210.689,-67.212C-210.443,-67.88 -210.317,-68.54 -210.092,-69.222C-209.881,-68.54 -209.74,-67.88 -209.508,-67.212C-201.606,-44.644 -170.433,-9.428 -74.481,4.724C38.928,21.443 110.582,-28.846 106.069,-111.222C101.555,-193.599 30.47,-200.376 0,-178.933" style="fill:rgb(136,136,136);fill-rule:nonzero;"/>
                        </g>
                    </g>
                </g>
            </g>
        </g>
    </g>
</svg>
