<?xml version="1.0" encoding="UTF-8" standalone="no"?>
<!DOCTYPE svg PUBLIC "-//W3C//DTD SVG 1.1//EN" "http://www.w3.org/Graphics/SVG/1.1/DTD/svg11.dtd">
<svg width="100%" height="100%" viewBox="0 0 795 506" version="1.1" xmlns="http://www.w3.org/2000/svg" xmlns:xlink="http://www.w3.org/1999/xlink" xml:space="preserve" xmlns:serif="http://www.serif.com/" style="fill-rule:evenodd;clip-rule:evenodd;stroke-linejoin:round;stroke-miterlimit:2;">
    <g transform="matrix(1,0,0,1,6.23204,3.96471)">
        <g transform="matrix(0.984309,0,0,0.984309,-199.755,-194.231)">
            <path d="M247.458,701.198C235.207,700.191 224.391,691.327 218.24,680.685C216.177,677.116 214.764,672.434 217.1,669.037C218.294,667.3 220.272,666.26 222.381,666.26C225.081,666.26 227.504,667.966 228.415,670.509C227.662,666.339 227.339,662.103 227.45,657.868C227.544,654.282 228.222,650.227 231.203,648.233C234.663,645.92 239.649,647.756 242.165,651.071C244.681,654.386 245.364,658.698 245.968,662.815C245.697,661.856 245.559,660.864 245.559,659.867C245.559,653.926 250.448,649.037 256.389,649.037C256.931,649.037 257.471,649.077 258.007,649.158C263.073,649.923 267.042,654.31 268.591,659.195C270.14,664.079 269.656,669.375 268.66,674.402C267.491,680.295 265.594,686.142 262.179,691.086C258.763,696.029 253.691,700.015 247.805,701.224L247.458,701.198Z" style="fill:rgb(242,242,242);fill-rule:nonzero;"/>
        </g>
        <g transform="matrix(0.984309,0,0,0.984309,-199.755,-194.231)">
            <path d="M997.061,303.327C997.061,348.274 968.483,388.557 926.061,403.407C925.401,403.637 924.731,403.867 924.061,404.077L924.061,296.367L785.291,296.367C785.331,295.697 785.381,295.027 785.441,294.367L924.061,294.367L924.061,273.327C924.06,270.585 921.803,268.329 919.061,268.327L790.981,268.327C791.211,267.657 791.451,266.987 791.711,266.327C807.132,224.935 846.879,197.327 891.051,197.327C949.202,197.327 997.055,245.176 997.061,303.327L997.061,303.327Z" style="fill:rgb(242,242,242);fill-rule:nonzero;"/>
        </g>
        <g transform="matrix(0.984309,0,0,0.984309,-199.755,-194.231)">
            <path d="M919.061,266.327L432.061,266.327C428.222,266.332 425.065,269.489 425.061,273.327L425.061,603.327C425.065,607.166 428.222,610.323 432.061,610.327L919.061,610.327C922.899,610.323 926.057,607.166 926.061,603.327L926.061,273.327C926.057,269.489 922.899,266.332 919.061,266.327ZM924.061,603.327C924.06,606.07 921.803,608.326 919.061,608.327L432.061,608.327C429.318,608.326 427.062,606.07 427.061,603.327L427.061,273.327C427.062,270.585 429.318,268.329 432.061,268.327L919.061,268.327C921.803,268.329 924.06,270.585 924.061,273.327L924.061,603.327Z" style="fill:rgb(63,61,86);fill-rule:nonzero;"/>
        </g>
        <g transform="matrix(0.984309,0,0,0.984309,-5.39872e-05,-3.17106e-07)">
            <rect x="223.122" y="97.04" width="499" height="2" style="fill:rgb(63,61,86);"/>
        </g>
        <g transform="matrix(0.984309,0,0,0.984309,-5.39872e-05,-3.17106e-07)">
            <circle cx="240.122" cy="84" r="6" style="fill:rgb(63,61,86);"/>
        </g>
        <g transform="matrix(0.984309,0,0,0.984309,-5.39872e-05,-3.17106e-07)">
            <circle cx="257.372" cy="84" r="6" style="fill:rgb(63,61,86);"/>
        </g>
        <g transform="matrix(0.984309,0,0,0.984309,-5.39872e-05,-3.17106e-07)">
            <circle cx="274.622" cy="84" r="6" style="fill:rgb(63,61,86);"/>
        </g>
        <g transform="matrix(0.984309,0,0,0.984309,-199.755,-194.231)">
            <path d="M562.061,335.327L474.061,335.327C470.222,335.332 467.065,338.489 467.061,342.327L467.061,430.327C467.065,434.166 470.222,437.323 474.061,437.327L562.061,437.327C565.899,437.323 569.057,434.166 569.061,430.327L569.061,342.327C569.057,338.489 565.899,335.332 562.061,335.327ZM567.061,430.327C567.06,433.07 564.803,435.326 562.061,435.327L474.061,435.327C471.318,435.326 469.062,433.07 469.061,430.327L469.061,342.327C469.062,339.585 471.318,337.329 474.061,337.327L562.061,337.327C564.803,337.329 567.06,339.585 567.061,342.327L567.061,430.327Z" style="fill:rgb(63,61,86);fill-rule:nonzero;"/>
        </g>
        <g transform="matrix(0.984309,0,0,0.984309,-199.755,-194.231)">
            <path d="M720.061,335.827L632.061,335.827C628.498,335.834 625.568,338.764 625.561,342.327L625.561,430.327C625.568,433.891 628.498,436.821 632.061,436.827L720.061,436.827C723.624,436.821 726.554,433.891 726.561,430.327L726.561,342.327C726.554,338.764 723.624,335.834 720.061,335.827Z" style="fill:rgb(108,99,255);fill-rule:nonzero;"/>
        </g>
        <g transform="matrix(0.984309,0,0,0.984309,-199.755,-194.231)">
            <path d="M878.061,335.827L790.061,335.827C786.498,335.834 783.568,338.764 783.561,342.327L783.561,430.327C783.568,433.891 786.498,436.821 790.061,436.827L878.061,436.827C881.624,436.821 884.554,433.891 884.561,430.327L884.561,342.327C884.554,338.764 881.624,335.834 878.061,335.827Z" style="fill:rgb(230,230,230);fill-rule:nonzero;"/>
        </g>
        <g transform="matrix(0.984309,0,0,0.984309,-199.755,-194.231)">
            <path d="M562.061,467.827L474.061,467.827C470.498,467.834 467.568,470.764 467.561,474.327L467.561,562.327C467.568,565.891 470.498,568.821 474.061,568.827L562.061,568.827C565.624,568.821 568.554,565.891 568.561,562.327L568.561,474.327C568.554,470.764 565.624,467.834 562.061,467.827Z" style="fill:rgb(230,230,230);fill-rule:nonzero;"/>
        </g>
        <g transform="matrix(0.984309,0,0,0.984309,-199.755,-194.231)">
            <path d="M720.061,467.827L632.061,467.827C628.498,467.834 625.568,470.764 625.561,474.327L625.561,562.327C625.568,565.891 628.498,568.821 632.061,568.827L720.061,568.827C723.624,568.821 726.554,565.891 726.561,562.327L726.561,474.327C726.554,470.764 723.624,467.834 720.061,467.827Z" style="fill:rgb(108,99,255);fill-rule:nonzero;"/>
        </g>
        <g transform="matrix(0.984309,0,0,0.984309,-199.755,-194.231)">
            <path d="M878.061,467.827L790.061,467.827C786.498,467.834 783.568,470.764 783.561,474.327L783.561,562.327C783.568,565.891 786.498,568.821 790.061,568.827L878.061,568.827C881.624,568.821 884.554,565.891 884.561,562.327L884.561,474.327C884.554,470.764 881.624,467.834 878.061,467.827Z" style="fill:rgb(230,230,230);fill-rule:nonzero;"/>
        </g>
        <g transform="matrix(0.984309,0,0,0.984309,-199.755,-194.231)">
            <path d="M540.561,482.327L452.561,482.327C448.997,482.323 446.065,479.392 446.061,475.827L446.061,387.827C446.065,384.263 448.997,381.332 452.561,381.327L540.561,381.327C544.125,381.332 547.057,384.263 547.061,387.827L547.061,475.827C547.057,479.392 544.125,482.323 540.561,482.327Z" style="fill:rgb(108,99,255);fill-rule:nonzero;"/>
        </g>
        <g transform="matrix(0.984309,0,0,0.984309,-5.39872e-05,-3.17106e-07)">
            <path d="M202.746,492.088L214.466,488.491L206.17,441.573L188.872,446.881L202.746,492.088Z" style="fill:rgb(160,97,106);fill-rule:nonzero;"/>
        </g>
        <g transform="matrix(-0.940993,0.288784,-0.288784,-0.940993,812.932,1008.87)">
            <path d="M403.482,680.858L442.013,680.858L442.013,695.745C442.013,695.745 418.369,695.745 418.369,695.745C410.202,695.745 403.482,689.025 403.482,680.858L403.482,680.858Z" style="fill:rgb(47,46,65);fill-rule:nonzero;"/>
        </g>
        <g transform="matrix(0.984309,0,0,0.984309,-5.39872e-05,-3.17106e-07)">
            <path d="M102.748,492.358L115.008,492.357L120.84,445.069L102.746,445.07L102.748,492.358Z" style="fill:rgb(160,97,106);fill-rule:nonzero;"/>
        </g>
        <g transform="matrix(-0.984309,4.50101e-05,-4.50101e-05,-0.984309,434.812,1171.24)">
            <path d="M303.06,686.182L341.591,686.182L341.591,701.069C341.591,701.069 317.947,701.069 317.947,701.069C309.78,701.069 303.06,694.348 303.06,686.182L303.06,686.182Z" style="fill:rgb(47,46,65);fill-rule:nonzero;"/>
        </g>
        <g transform="matrix(0.984309,0,0,0.984309,-199.755,-194.231)">
            <path d="M304.807,552.608C302.824,550.869 301.685,548.356 301.685,545.718C301.685,542.936 302.952,540.3 305.125,538.562L314.631,418.868L333.962,423.697L318.484,540.456C319.56,542 320.137,543.838 320.137,545.72C320.137,550.774 315.978,554.932 310.925,554.932C308.67,554.932 306.493,554.105 304.807,552.608Z" style="fill:rgb(160,97,106);fill-rule:nonzero;"/>
        </g>
        <g transform="matrix(0.984309,0,0,0.984309,-5.39872e-05,-3.17106e-07)">
            <circle cx="140.579" cy="150.555" r="24.561" style="fill:rgb(160,97,106);"/>
        </g>
        <g transform="matrix(0.984309,0,0,0.984309,-199.755,-194.231)">
            <path d="M322.162,415.186C316.62,407.578 316.449,397.099 322.419,389.822C326.315,385.073 332.831,381.272 343.711,381.272C372.711,381.272 383.711,404.272 383.711,404.272C383.711,404.272 395.711,426.272 388.711,446.272C381.711,466.272 381.711,468.272 381.711,468.272L335.711,464.272C335.711,464.272 343.471,444.441 322.162,415.186Z" style="fill:rgb(204,204,204);fill-rule:nonzero;"/>
        </g>
        <g transform="matrix(0.984309,0,0,0.984309,-199.755,-194.231)">
            <path d="M307.977,435.095L317.886,402.674C319.873,396.174 325.914,391.704 332.711,391.704C335.183,391.704 337.619,392.296 339.816,393.429C347.04,397.17 350.162,405.985 346.904,413.438L334.306,442.13L307.977,435.095Z" style="fill:rgb(204,204,204);fill-rule:nonzero;"/>
        </g>
        <g transform="matrix(0.984309,0,0,0.984309,-199.755,-194.231)">
            <path d="M380.711,463.272L419.711,665.272L398.711,671.272L347.711,538.272L324.711,674.272L302.711,677.272C302.711,677.272 293.061,497.327 335.711,464.272L380.711,463.272Z" style="fill:rgb(47,46,65);fill-rule:nonzero;"/>
        </g>
        <g transform="matrix(0.984309,0,0,0.984309,-199.755,-194.231)">
            <path d="M436.842,453.805C436.487,454.229 436.165,454.68 435.88,455.154L386.345,457.556L376.806,428.436L360.245,436.308L375.832,479.679L437.094,467.698C439.082,469.868 441.892,471.105 444.834,471.105C450.592,471.105 455.33,466.367 455.33,460.609C455.33,454.851 450.592,450.113 444.834,450.113C441.76,450.113 438.835,451.464 436.842,453.805Z" style="fill:rgb(160,97,106);fill-rule:nonzero;"/>
        </g>
        <g transform="matrix(0.984309,0,0,0.984309,-199.755,-194.231)">
            <path d="M353.314,407.177C353.243,406.575 353.208,405.971 353.208,405.365C353.208,396.862 360.205,389.864 368.709,389.864C369.032,389.864 369.354,389.874 369.677,389.894C377.795,390.416 384.198,397.231 384.211,405.366L384.211,436.701L357.275,440.846L353.314,407.177Z" style="fill:rgb(204,204,204);fill-rule:nonzero;"/>
        </g>
        <g transform="matrix(0.984309,0,0,0.984309,-199.755,-194.231)">
            <path d="M348.92,372.666C345.233,372.65 342.39,368.769 342.555,365.087C342.72,361.404 345.193,358.164 348.173,355.994C351.153,353.824 354.648,352.502 357.971,350.906C361.295,349.311 364.589,347.321 366.641,344.258C369.154,340.194 369.536,335.15 367.664,330.754C365.755,326.417 362.475,322.825 358.331,320.529C345.63,313.095 329.146,316.711 320.724,328.78L316.516,340.238C312.228,345.394 311.548,353.051 314.184,359.217C316.819,365.384 322.432,370.023 328.765,372.229C335.189,374.293 342.069,374.5 348.606,372.824" style="fill:rgb(47,46,65);fill-rule:nonzero;"/>
        </g>
        <g transform="matrix(0.984309,0,0,0.984309,-199.755,-194.231)">
            <path d="M326.473,334.506C324.664,331.607 321.529,329.763 318.287,328.681C315.661,327.804 312.91,327.357 310.141,327.357C296.556,327.357 285.193,338.118 284.455,351.684C284.111,357.998 286.089,364.173 287.25,370.389C288.412,376.605 288.643,383.47 285.216,388.785C282.605,392.833 278.252,395.381 273.955,397.557C270.374,399.371 266.5,401.073 262.502,400.712C258.504,400.35 254.485,397.184 254.592,393.171C253.253,396.048 252.349,399.108 251.91,402.251C251.629,405.407 252.407,408.812 254.686,411.013C257.999,414.211 263.249,413.977 267.802,413.287C277.659,411.793 287.64,408.992 295.427,402.767C303.215,396.542 308.382,386.292 306.331,376.536C305.474,372.46 303.461,368.74 301.834,364.906C300.207,361.072 298.937,356.879 299.685,352.782C300.58,348.512 303.327,344.852 307.177,342.8C311.026,340.799 315.431,340.131 319.7,340.901C322.499,341.361 325.994,342.074 327.654,339.774C328.551,338.289 328.514,336.414 327.56,334.965C326.603,333.559 325.383,332.35 323.968,331.406" style="fill:rgb(47,46,65);fill-rule:nonzero;"/>
        </g>
        <g transform="matrix(0.984309,0,0,0.984309,-199.755,-194.231)">
            <path d="M511.424,702.673L204.13,702.673C204.129,702.673 204.127,702.673 204.126,702.673C203.473,702.673 202.936,702.135 202.936,701.482C202.936,700.829 203.473,700.291 204.126,700.291C204.127,700.291 204.129,700.291 204.13,700.291L511.424,700.291C511.425,700.291 511.426,700.291 511.427,700.291C512.08,700.291 512.618,700.829 512.618,701.482C512.618,702.135 512.08,702.673 511.427,702.673C511.426,702.673 511.425,702.673 511.424,702.673Z" style="fill:rgb(63,61,86);fill-rule:nonzero;"/>
        </g>
    </g>
</svg>
